<?xml version="1.0" encoding="iso-8859-1"?>
<!-- Generator: Adobe Illustrator 19.0.0, SVG Export Plug-In . SVG Version: 6.00 Build 0)  -->
<svg version="1.1" id="Capa_1" xmlns="http://www.w3.org/2000/svg" xmlns:xlink="http://www.w3.org/1999/xlink" x="0px" y="0px"
	 viewBox="0 0 512 512" style="enable-background:new 0 0 512 512;" xml:space="preserve">
<path style="fill:#D2FAE6;" d="M512,256c0,141.385-114.615,256-256,256S0,397.385,0,256S114.615,0,256,0S512,114.615,512,256z"/>
<path style="fill:#AFEBD2;" d="M371.839,131.286C314.988,74.435,239.4,43.125,159,43.125c-17.469,0-34.708,1.487-51.58,4.386
	C89.53,60.283,73.359,75.306,59.306,92.157C87.243,81.067,117.436,74.48,149,73.329v237.476L38.961,120.212
	c-4.102,6.543-7.922,13.279-11.431,20.201l104.149,180.392L0.253,244.926C0.097,248.6,0,252.288,0,256
	c0,4.037,0.105,8.05,0.29,12.041l121.389,70.084H13.457c2.302,6.803,4.899,13.468,7.745,20H121.68L45.702,401.99
	c3.841,5.522,7.887,10.892,12.14,16.085l73.837-42.63L88.746,449.81c5.099,4.404,10.382,8.601,15.82,12.598L149,385.445v103.172
	c6.524,3.006,13.194,5.749,20,8.209V385.445l72.838,126.159C246.527,511.86,251.247,512,256,512c3.034,0,6.05-0.072,9.058-0.177
	L186.32,375.445L372.213,482.77c6.349-3.876,12.509-8.028,18.478-12.426L196.32,358.124h233.321
	c-1.852,36.22-10.863,70.575-25.62,101.697c19.478-16.441,36.475-35.729,50.331-57.234c3.731-19.056,5.647-38.611,5.647-58.463
	C460,263.726,428.69,188.138,371.839,131.286z M169,310.805V73.329c42.74,1.559,82.988,13.047,118.489,32.246L169,310.805z
	 M304.721,115.729c34.707,22.222,64.035,52.135,85.573,87.313L186.321,320.805L304.721,115.729z M196.32,338.125l203.783-117.654
	c18.241,35.423,28.896,75.36,29.82,117.654H196.32z"/>
<path style="fill:#C78B00;" d="M477.13,385.038c-12.892,22.046-28.984,41.987-47.642,59.192h-39.161v-59.192L477.13,385.038
	L477.13,385.038z"/>
<path style="fill:#F2C230;" d="M389.669,385.038h21.046v59.192h-21.046V385.038z M435.708,385.038V438.3
	c7.481-7.375,14.514-15.204,21.046-23.448v-29.813h-21.046V385.038z"/>
<path style="fill:#FFE13C;" d="M462.673,339c11.93,0,22.87,4.235,31.4,11.284c-5.737,14.474-12.766,28.292-20.927,41.331H383.75
	c-1.816,0-3.288-1.473-3.288-3.288c0-27.243,22.084-49.327,49.327-49.327H462.673z"/>
<path style="fill:#EBB410;" d="M436.369,437.654c-14.455,14.353-30.61,26.994-48.142,37.59c-4.951-9.24-7.766-19.797-7.766-31.014
	v-2.192c0-2.421,1.963-4.384,4.385-4.384H436.369z"/>
<path style="fill:#41739B;" d="M121.673,154.231H9.865V95.038h111.808V154.231z"/>
<path style="fill:#4BB9E1;" d="M55.246,95.039h21.046v59.192H55.246V95.039z M9.208,154.231h21.046V95.039H9.208V154.231z
	 M101.285,95.039v59.192h21.046V95.039H101.285z"/>
<path style="fill:#87DCFA;" d="M128.25,101.615H3.288c-1.816,0-3.288-1.472-3.288-3.288l0,0C0,71.084,22.084,49,49.327,49h32.885
	c27.242,0,49.327,22.084,49.327,49.327l0,0C131.538,100.143,130.066,101.615,128.25,101.615z"/>
<path style="fill:#46A5CD;" d="M131.538,152.038v2.192c0,36.323-29.446,65.769-65.769,65.769l0,0C29.446,220,0,190.554,0,154.231
	v-2.192c0-2.422,1.963-4.385,4.385-4.385h122.769C129.575,147.654,131.538,149.617,131.538,152.038z"/>
<path style="fill:#4BB9E1;" d="M52.846,147.654h74.308c2.422,0,4.385,1.963,4.385,4.385v2.192c0,27.763-17.211,51.491-41.538,61.141
	c-24.327-9.65-41.538-33.378-41.538-61.141v-2.192C48.462,149.617,50.425,147.654,52.846,147.654z"/>
<path style="fill:#A00046;" d="M310.135,95.039v59.192H198.327V95.039H310.135z"/>
<path style="fill:#FF8CB4;" d="M243.708,95.039h21.046v59.192h-21.046V95.039z M197.669,154.231h21.046V95.039h-21.046V154.231z
	 M289.746,95.039v59.192h21.046V95.039H289.746z"/>
<path style="fill:#FF5F96;" d="M316.712,101.615H191.75c-1.816,0-3.288-1.472-3.288-3.288l0,0c0-27.242,22.084-49.327,49.327-49.327
	h32.885C297.916,49,320,71.084,320,98.327l0,0C320,100.143,318.528,101.615,316.712,101.615z"/>
<path style="fill:#A03C19;" d="M460.135,254.231H348.327v-59.192h111.808V254.231z"/>
<path style="fill:#FF7D0A;" d="M393.708,195.039h21.046v59.192h-21.046V195.039z M347.669,254.231h21.046v-59.192h-21.046V254.231z
	 M439.746,195.039v59.192h21.046v-59.192H439.746z"/>
<path style="fill:#FF9B32;" d="M466.712,201.615H341.75c-1.816,0-3.288-1.472-3.288-3.288l0,0c0-27.242,22.084-49.327,49.327-49.327
	h32.885C447.916,149,470,171.084,470,198.327l0,0C470,200.143,468.528,201.615,466.712,201.615z"/>
<path style="fill:#DC550A;" d="M470,252.038v2.192c0,36.324-29.446,65.77-65.769,65.77l0,0c-36.323,0-65.769-29.446-65.769-65.769
	v-2.192c0-2.422,1.963-4.385,4.385-4.385h122.769C468.037,247.654,470,249.617,470,252.038z"/>
<path style="fill:#82D2AF;" d="M214,344.125c0,30.376-24.624,55-55,55s-55-24.624-55-55s24.624-55,55-55S214,313.749,214,344.125z"
	/>
<path style="fill:#1E9682;" d="M184,344.125c0,13.807-11.193,25-25,25s-25-11.193-25-25s11.193-25,25-25S184,330.318,184,344.125z"
	/>
<path style="fill:#D72D73;" d="M320,152.038v2.192c0,36.324-29.446,65.77-65.769,65.77l0,0c-36.323,0-65.769-29.446-65.769-65.769
	v-2.192c0-2.422,1.963-4.385,4.385-4.385h122.769C318.037,147.654,320,149.617,320,152.038z"/>
<path style="fill:#FF4682;" d="M241.308,147.654h74.308c2.422,0,4.385,1.963,4.385,4.385v2.192
	c0,27.763-17.211,51.491-41.538,61.141c-24.327-9.65-41.538-33.378-41.538-61.141v-2.192
	C236.923,149.617,238.886,147.654,241.308,147.654z"/>
<path style="fill:#FF640A;" d="M391.308,247.654h74.308c2.422,0,4.385,1.963,4.385,4.385v2.192
	c0,27.763-17.211,51.491-41.538,61.141c-24.327-9.65-41.538-33.378-41.538-61.141v-2.192
	C386.923,249.617,388.886,247.654,391.308,247.654z"/>
<g>
</g>
<g>
</g>
<g>
</g>
<g>
</g>
<g>
</g>
<g>
</g>
<g>
</g>
<g>
</g>
<g>
</g>
<g>
</g>
<g>
</g>
<g>
</g>
<g>
</g>
<g>
</g>
<g>
</g>
</svg>
