<svg id="Capa_1" enable-background="new 0 0 512 512" height="512" viewBox="0 0 512 512" width="512" xmlns="http://www.w3.org/2000/svg"><g><path d="m512 256c0 17.22-1.7 34.043-4.942 50.31-23.374 117.294-126.893 119.886-251.058 119.886-113.161 0-209.173 12.381-242.997-89.424-8.436-25.391-13.003-52.548-13.003-80.772 0-141.385 114.615-256 256-256s256 114.615 256 256z" fill="#cbe2ff"/><g><path d="m441.4 71.38v154.92h-219.158c-2.558-3.496-4.941-7.125-7.145-10.871v-144.049z" fill="#ffd064"/><path d="m351.617 147.549h-46.736c-8.081 0-14.632-6.551-14.632-14.632 0-8.081 6.551-14.632 14.632-14.632h46.736c8.081 0 14.632 6.551 14.632 14.632-.001 8.081-6.552 14.632-14.632 14.632z" fill="#2b4d66"/><path d="m215.097 83.584h13.388v142.716h-13.388z" fill="#ebb044"/><path d="m215.098 71.38h226.301v39.015h-226.301z" fill="#ebb044"/><path d="m208.852 49.9h238.793v48.487h-238.793z" fill="#ffd064"/><path d="m208.852 49.9h12.278v48.487h-12.278z" fill="#ebb044"/></g><path d="m507.06 306.31c-6.78 34.01-20.31 65.6-39.12 93.3-14.94 22.02-43.606 11.785-64.506 28.175-43.48 34.08-98.27 54.41-157.8 54.41-62.73 0-120.19-22.57-164.71-60.02-25.25-21.24-35.964-17.465-51.494-46.885-6.48-12.28-11.99-25.16-16.42-38.52 15.39-6.42 18.03-30.8 37.99-30.8 23 0 23 32.35 46 32.35s23-32.35 46-32.35 23 32.35 46 32.35c22.99 0 22.99-32.35 45.99-32.35s23 32.35 46 32.35 23-32.35 46-32.35 23 32.35 46 32.35 23-32.35 46-32.35c23.01 0 23.01 32.35 46.01 32.35 21.6 0 22.92-28.54 42.06-32.01z" fill="#61a2f9"/><g><path d="m70.196 32.259h16.305v43.451h-16.305z" fill="#2b4d66"/><path d="m99.059 15h16.305v60.71h-16.305z" fill="#2b4d66"/><path d="m153.24 69.9v31.6l-6.494 23.115 6.494 23.115v83.91h-109.43v-161.74z" fill="#f9f6f6"/><path d="m43.808 69.904h109.431v26.641h-109.431z" fill="#dddaec"/><path d="m43.808 69.904h15.924v161.738h-15.924z" fill="#dddaec"/><path d="m499.45 161.668h-64.711c-16.728 0-31.265 11.494-35.122 27.772-3.857 16.278-18.394 27.772-35.122 27.772h-333.225c-5.004 0-8.919 4.311-8.439 9.291l10.349 107.353 13.655 11.051-11.525 11.05 2.397 24.844 53.583 51.359h312.335c9.081 0 16.766-6.706 17.997-15.703l5.043-36.87c1.122-8.2 3.921-15.975 8.115-22.903.151-.245.302-.49.452-.726 2.073-3.313-15.447-8.19-12.752-11.05s14.289-4.795 17.551-7.099c2.186-1.545 15.569-2.143 17.501-3.952 9.463-8.813 15.872-20.509 18.143-33.374z" fill="#dd636e"/><path d="m131.065 432.156h-35.702l-57.648-51.355-2.397-24.847 11.516-11.047-13.654-11.048-10.349-107.356c-.476-4.984 3.439-9.291 8.444-9.291h71.895c-5.005 0-8.921 4.307-8.434 9.291l10.349 107.355 2.127 22.095 5.767 59.789c.9 9.313 8.72 16.414 18.086 16.414z" fill="#da4a54"/><path d="m457.532 333.86c-1.937 1.81-4 3.492-6.18 5.037-6.529 4.614-11.968 10.434-16.117 17.058h-399.929l-2.127-22.095z" fill="#e6e6e6"/><circle cx="431.68" cy="233.033" fill="#2b4d66" r="15.965"/><path d="m107.212 355.955h-71.895l-2.138-22.095h71.906z" fill="#d4d4d4"/><path d="m36.089 85.008h124.849c7.508 0 13.594-6.086 13.594-13.594 0-7.508-6.086-13.594-13.594-13.594h-124.849c-7.508 0-13.594 6.086-13.594 13.594 0 7.508 6.086 13.594 13.594 13.594z" fill="#dd636e"/><path d="m50.225 81.035c2.46 2.46 5.86 3.98 9.61 3.98h-23.74c-3.76 0-7.16-1.52-9.62-3.98-2.46-2.47-3.98-5.87-3.98-9.62 0-7.5 6.09-13.59 13.6-13.59h23.74c-7.5 0-13.59 6.09-13.59 13.59 0 3.75 1.52 7.15 3.98 9.62z" fill="#da4a54"/><path d="m153.24 101.5v46.23h-67.13c-8.79 0-15.91-7.13-15.91-15.91v-14.41c0-8.79 7.12-15.91 15.91-15.91z" fill="#9dc6fb"/><path d="m459.748 270.704c0 12.052-7.636 22.351-18.322 26.321v-67.493h-21.164v66.803c-9.8-4.383-16.649-14.219-16.649-25.631h-21.164c0 27.147 22.086 49.232 49.233 49.232s49.232-22.085 49.232-49.232z" fill="#365e7d"/><g fill="#f9f6f6"><path d="m88.808 98.866h10.252v56.669h-10.252z"/><path d="m122.64 98.866h10.252v56.669h-10.252z"/></g></g><path d="m467.94 399.61c-6.85 10.1-14.42 19.69-22.63 28.69-6.92 7.62-14.31 14.82-22.11 21.54-3.07 2.67-6.2 5.25-9.4 7.75-43.48 34.08-98.27 34.619-157.8 34.619-62.73 0-120.19-2.779-164.71-40.229-.84-.71-1.68-1.42-2.51-2.14-7.8-6.73-15.19-13.93-22.13-21.55-14.52-15.95-27.06-33.75-37.22-53 3.06-1.97 6.66-3.18 11.11-3.18 23 0 23 32.35 46 32.35s23-32.35 46-32.35 23 32.35 45.99 32.35c23 0 23-32.35 46-32.35s23 32.35 46 32.35 23-32.35 46-32.35 23 32.35 46 32.35 23-32.35 46-32.35 23 32.35 46.01 32.35c5.61 0 9.86-1.93 13.4-4.85z" fill="#9dc6fb"/><path d="m413.8 457.59c-43.48 34.08-98.27 54.41-157.8 54.41-62.73 0-120.19-22.57-164.71-60.02 5.22-7.19 10.91-13.72 21.25-13.72 23 0 23 32.34 45.99 32.34 23 0 23-32.34 46-32.34s23 32.34 46 32.34 23-32.34 46-32.34 23 32.34 46 32.34 23-32.34 46-32.34c13.01 0 18.66 10.34 25.27 19.33z" fill="#80b4fb"/></g></svg>