<?xml version="1.0" encoding="iso-8859-1"?>
<!-- Generator: Adobe Illustrator 19.0.0, SVG Export Plug-In . SVG Version: 6.00 Build 0)  -->
<svg version="1.1" id="Capa_1" xmlns="http://www.w3.org/2000/svg" xmlns:xlink="http://www.w3.org/1999/xlink" x="0px" y="0px"
	 viewBox="0 0 512 512" style="enable-background:new 0 0 512 512;" xml:space="preserve">
<path style="fill:#AFEAF2;" d="M512,256c0,141.385-114.615,256-256,256S0,397.385,0,256S114.615,0,256,0S512,114.615,512,256z"/>
<path style="fill:#D5F3F7;" d="M350,125c0,8.284-6.716,15-15,15H225c-8.284,0-15-6.716-15-15s6.716-15,15-15h110
	C343.284,110,350,116.716,350,125z M256,0c-11.473,0-22.766,0.767-33.84,2.229C217.87,4.869,215,9.594,215,15
	c0,8.284,6.716,15,15,15h25c5.523,0,10,4.477,10,10s-4.477,10-10,10h-90c-8.284,0-15,6.716-15,15s6.716,15,15,15h130
	c8.284,0,15-6.716,15-15s-6.716-15-15-15h-10c-5.523,0-10-4.477-10-10s4.477-10,10-10h75c3.645,0,6.985-1.302,9.585-3.465
	C335.356,9.56,296.797,0,256,0z"/>
<path style="fill:#F72C2C;" d="M140,157.066H44c-16.569,0-30-13.431-30-30v-40c0-16.569,13.431-30,30-30h96
	c16.569,0,30,13.431,30,30v40C170,143.634,156.569,157.066,140,157.066z"/>
<path style="fill:#FF4343;" d="M140,157.066H70c-16.569,0-30-13.431-30-30v-40c0-16.569,13.431-30,30-30h70
	c16.569,0,30,13.431,30,30v40C170,143.634,156.569,157.066,140,157.066z"/>
<path style="fill:#8D9CA8;" d="M140,55v100c0,2.761-2.239,5-5,5h-10c-2.761,0-5-2.239-5-5V55c0-2.761,2.239-5,5-5h10
	C137.761,50,140,52.239,140,55z M65,50H55c-2.761,0-5,2.239-5,5v100c0,2.761,2.239,5,5,5h10c2.761,0,5-2.239,5-5V55
	C70,52.239,67.761,50,65,50z"/>
<path style="fill:#FF7118;" d="M503.446,321.806l-144.371,57.835c-1.194,0.478-2.525,0.478-3.719,0l-172.214-68.989
	c-2.963-1.187-4.07-4.809-2.278-7.45L353.079,49.496c1.984-2.923,6.29-2.923,8.274,0L511.564,270.79
	C510.565,288.327,507.801,305.389,503.446,321.806z"/>
<path style="fill:#FF5F00;" d="M370.608,375.021l-11.533,4.62c-1.193,0.478-2.525,0.478-3.719,0l-172.214-68.989
	c-2.963-1.187-4.07-4.809-2.278-7.45L353.079,49.496c1.984-2.923,6.29-2.923,8.274,0l9.255,13.635L207.649,303.203
	c-1.792,2.641-0.685,6.263,2.278,7.45L370.608,375.021z"/>
<path style="fill:#FF9D5C;" d="M239.172,316.894l113.906-167.808c1.984-2.923,6.29-2.923,8.274,0l113.906,167.808H239.172z"/>
<path style="fill:#FF8835;" d="M367.216,157.723V310h-20V157.723l5.863-8.637c1.984-2.923,6.29-2.923,8.274,0L367.216,157.723z"/>
<path style="fill:#D0C731;" d="M508.22,300C487.358,420.417,382.38,512,256,512S24.642,420.417,3.78,300h441.631l26.94-65.025
	c0.881-2.126,4.067-1.326,3.838,0.965L469.782,300h1.65l20.23-14.638c1.645-1.19,3.812,0.545,3.01,2.411L489.412,300H508.22z"/>
<path style="fill:#A94B30;" d="M460,340L460,340c0,5.523-4.477,10-10,10h-20c-5.523,0-10-4.477-10-10l0,0c0-11.046,8.954-20,20-20
	l0,0C451.046,320,460,328.954,460,340z"/>
<path style="fill:#C5573A;" d="M450,350h-10c-5.523,0-10-4.477-10-10l0,0c0-9.316,6.379-17.121,15-19.344
	c8.621,2.223,15,10.029,15,19.344l0,0C460,345.523,455.523,350,450,350z"/>
<path style="fill:#3693BD;" d="M360,333.732c0,35.898-29.101,65-65,65H43.458C16.018,357.953,0,308.848,0,256
	c0-38.306,8.428-74.639,23.508-107.268h161.771c15.151,0,29.001,8.56,35.777,22.111L270,268.732h25
	C330.899,268.732,360,297.834,360,333.732z"/>
<path style="fill:#C5D3DD;" d="M237.544,257.154c2.66,5.319-1.208,11.578-7.156,11.578H0.316C0.11,264.514,0,260.27,0,256
	c0-30.896,5.474-60.512,15.503-87.935h165.136c7.575,0,14.501,4.28,17.888,11.056L237.544,257.154z"/>
<path style="fill:#D9E7EC;" d="M201.452,268.732h-70L81.118,168.065h70L201.452,268.732z M29.667,168.065L80,268.732h30
	L59.667,168.065H29.667z"/>
<path style="fill:#0582B0;" d="M250,398.548H95.605c3.563-39.514,36.756-70.483,77.197-70.483
	C213.244,328.066,246.437,359.034,250,398.548z M20,355.358c5.61,13.31,12.316,26.043,20,38.093V268.732H20V355.358z M110,297.066
	c0-5.523-4.477-10-10-10H70c-5.523,0-10,4.477-10,10s4.477,10,10,10h30C105.523,307.066,110,302.588,110,297.066z"/>
<path style="fill:#465A61;" d="M222.14,405.597c0,27.249-22.089,49.338-49.338,49.338s-49.338-22.089-49.338-49.338
	c0-27.249,22.089-49.338,49.338-49.338S222.14,378.348,222.14,405.597z"/>
<path style="fill:#D9E7EC;" d="M193.947,405.597c0,11.678-9.467,21.145-21.145,21.145s-21.145-9.467-21.145-21.145
	c0-11.678,9.467-21.145,21.145-21.145S193.947,393.919,193.947,405.597z"/>
<path style="fill:#FFF2B4;" d="M355,317.066h-40c-13.807,0-25-11.193-25-25l0,0c0-10.021,5.898-18.659,14.409-22.646
	c25.843,3.748,46.752,22.696,53.38,47.488C356.873,317.009,355.943,317.066,355,317.066z"/>
<path style="fill:#87523E;" d="M465.009,403.85c-6.51,9.186-13.62,17.915-21.255,26.15l0,0c-10.133,10.929-21.206,20.973-33.096,30
	H385c-8.284,0-15-6.716-15-15s6.716-15,15-15h-20c-8.284,0-15-6.716-15-15s6.716-15,15-15h90
	C458.852,400,462.353,401.464,465.009,403.85z"/>
<path style="fill:#FFDF8E;" d="M365,430c-8.284,0-15-6.716-15-15l0,0c0-8.284,6.716-15,15-15s15,6.716,15,15l0,0
	C380,423.284,373.284,430,365,430z M385,430c-8.284,0-15,6.716-15,15s6.716,15,15,15s15-6.716,15-15S393.284,430,385,430z"/>
<g>
</g>
<g>
</g>
<g>
</g>
<g>
</g>
<g>
</g>
<g>
</g>
<g>
</g>
<g>
</g>
<g>
</g>
<g>
</g>
<g>
</g>
<g>
</g>
<g>
</g>
<g>
</g>
<g>
</g>
</svg>
