<svg id="Layer_1" enable-background="new 0 0 512 512" height="512" viewBox="0 0 512 512" width="512" xmlns="http://www.w3.org/2000/svg"><g><path d="m478.178 370.353c14.634-31.406 22.822-66.421 22.822-103.353 0-135.31-109.69-245-245-245s-245 109.69-245 245c0 36.933 8.188 71.948 22.822 103.353z" fill="#90d8f9"/><g fill="#b1e4f9"><path d="m466.471 141.548c-22.745 1.498-41.008 20.139-41.529 43.323-.045 1.995-1.583 3.665-3.574 3.804-4.057.282-7.857 1.737-11.018 4.103-1.791 1.341-4.315.794-5.572-1.058-4.462-6.573-11.994-10.892-20.537-10.892-9.279 0-17.367 5.094-21.623 12.638-1.18 2.092-3.848 2.708-5.8 1.309-3.24-2.323-7.215-3.685-11.509-3.672-10.317.032-19.04 8.307-19.581 18.61-.595 11.345 8.428 20.73 19.643 20.73h152.912c-4.801-32.09-15.831-62.14-31.812-88.895z"/><path d="m132.047 236.297c8.934 0 16.121-7.476 15.647-16.514-.431-8.207-7.379-14.799-15.598-14.825-3.42-.011-6.587 1.075-9.168 2.925-1.555 1.115-3.681.624-4.621-1.042-3.39-6.009-9.833-10.067-17.224-10.067-6.805 0-12.805 3.441-16.359 8.676-1.001 1.475-3.012 1.911-4.438.842-2.518-1.885-5.546-3.044-8.777-3.269-1.585-.11-2.811-1.441-2.847-3.03-.433-19.262-16.237-34.597-35.434-34.597-.076 0-.151.007-.227.007-10.071 22.071-16.965 45.895-20.09 70.892h119.136z"/><path d="m168.784 135.04c6.46 0 11.657-5.406 11.314-11.941-.312-5.934-5.336-10.701-11.279-10.72-2.473-.008-4.763.777-6.629 2.115-1.124.806-2.662.451-3.341-.754-2.451-4.345-7.11-7.279-12.454-7.279-4.921 0-9.259 2.488-11.829 6.274-.724 1.066-2.178 1.382-3.209.609-1.821-1.363-4.01-2.201-6.346-2.364-1.146-.08-2.032-1.042-2.059-2.191-.313-13.928-11.741-25.016-25.622-25.016-1.498 0-2.962.141-4.39.387-16.669 14.876-31.301 31.986-43.401 50.878h119.245z"/></g><path d="m159.51 352.151v140.104c11.31 4.852 23.061 8.87 35.172 11.994h122.626c12.197-3.146 24.03-7.198 35.415-12.095v-140.003z" fill="#bec8f7"/><path d="m159.51 492.254c11.31 4.852 23.061 8.87 35.172 11.994h49.872v-114.451c0-.871-.376-1.702-1.024-2.284-5.209-4.681-3.388-9.726-1.806-12.354.664-1.102.626-2.499-.169-3.51-5.148-6.548-1.97-12.505.333-15.431.896-1.139.894-2.742-.027-3.861-.057-.069-.104-.138-.16-.207h-82.19v140.104z" fill="#abbaef"/><path d="m33.355 369.353c18.481 40.134 47.491 74.41 83.493 99.301v-116.503h-83.493z" fill="#bec8f7"/><path d="m89.906 354.315v92.756c8.454 7.801 17.452 15.021 26.943 21.582v-116.502h-26.977c.02.703.034 1.419.034 2.164z" fill="#abbaef"/><path d="m376.589 230.283c-1.097-2.814-5.079-2.814-6.176 0l-22.575 57.907h51.327z" fill="#dae2fe"/><g><path d="m371.288 278.825 4.668-45.402c.09-.878.487-1.584 1.042-2.092l-.409-1.048c-1.097-2.814-5.079-2.814-6.176 0l-22.575 57.907h26.962c-2.438-2.286-3.895-5.634-3.512-9.365z" fill="#bec8f7"/></g><path d="m194.213 247.236h123.574v86.573h-123.574z" fill="#3c5082"/><path d="m194.213 333.809h60.917v-63.631c-8.608-11.598 2.87-19.941 2.87-19.941l-4.098-3h-59.69v86.572z" fill="#2d3c6b"/><path d="m255.131 277.678c-13.169 0-23.846 10.676-23.846 23.846v32.285h47.691v-32.285c.001-13.17-10.675-23.846-23.845-23.846z" fill="#3c5082"/><path d="m255.131 277.678c-4.345 0-8.414 1.168-11.923 3.198 7.125 4.124 11.923 11.823 11.923 20.647v32.285h23.846v-32.285c0-13.169-10.676-23.845-23.846-23.845z" fill="#2d3c6b"/><path d="m255.131 270.178c-17.284 0-31.345 14.061-31.345 31.346v32.286h15v-32.286c0-9.013 7.333-16.346 16.345-16.346 9.013 0 16.346 7.333 16.346 16.346v32.286h15v-32.286c-.001-17.285-14.062-31.346-31.346-31.346z" fill="#4d6596"/><path d="m256 73.459c2.991 0 5.668 1.32 7.5 3.401v-69.36c0-4.143-3.358-7.5-7.5-7.5s-7.5 3.357-7.5 7.5v69.36c1.832-2.081 4.509-3.401 7.5-3.401z" fill="#e9efff"/><path d="m246.52 104.393h18.961c.175 0 .345.025.519.032v-22.966c0-5.522-4.477-10-10-10s-10 4.478-10 10v22.965c.174-.006.345-.031.52-.031z" fill="#bec8f7"/><path d="m256 91.257c-5.489 0-9.941-4.424-9.995-9.899 0 .034-.005.067-.005.101v22.965c.174-.007.345-.032.52-.032h18.961c.175 0 .346.025.52.032v-22.965c0-.034-.005-.067-.005-.101-.056 5.476-4.507 9.899-9.996 9.899z" fill="#abbaef"/><path d="m276.846 108.338c-2.586-3.724-6.832-5.945-11.366-5.945h-18.96c-4.534 0-8.78 2.221-11.366 5.945l-52.884 76.166h9.167c.678 0 1.227.549 1.227 1.227v17.288h27.815v-17.289c0-.678.55-1.227 1.227-1.227h19.161c.675 0 1.227.552 1.227 1.227v17.288h27.815v-17.288c0-.675.552-1.227 1.227-1.227h19.161c.678 0 1.227.549 1.227 1.227v17.288h27.815v-17.288c0-.678.549-1.227 1.227-1.227h9.167z" fill="#dae2fe"/><path d="m269.907 203.018v-17.206c-.506-.042-1.014-.082-1.55-.082-21.938 0-15.785-21.289-15.785-21.289l12.908-62.05h-18.96c-4.534 0-8.78 2.221-11.366 5.945l-52.884 76.165h9.167c.678 0 1.227.55 1.227 1.227v17.288h27.815v-17.286c0-.677.549-1.227 1.227-1.227h19.161c.675 0 1.227.552 1.227 1.227v17.288z" fill="#bec8f7"/><path d="m340.998 47.722-38.166-11.019v12.125c0 .896-.697 1.695-1.603 1.923l-18.864 3.863v9.584c0 2.228 2.136 3.835 4.276 3.217l54.357-15.693c2.005-.579 2.005-3.42 0-4z" fill="#cc0053"/><path d="m301.67 20.888-35.352-7.24c-3.27-.67-6.332 1.829-6.332 5.167v35.617c0 3.338 3.062 5.836 6.332 5.167l35.352-7.24c1.82-.454 3.074-1.893 3.074-3.53v-24.41c-.001-1.637-1.254-3.077-3.074-3.531z" fill="#ff4155"/><path d="m301.67 34.859-35.352 7.24c-3.27.67-6.332-1.829-6.332-5.167v17.5c0 3.338 3.062 5.836 6.332 5.167l35.352-7.24c1.82-.454 3.073-1.894 3.073-3.53v-17.5c0 1.636-1.253 3.075-3.073 3.53z" fill="#e80054"/><path d="m180.265 229.41v14.332c0 3.587 2.908 6.494 6.494 6.494h138.483c3.586 0 6.494-2.907 6.494-6.494v-14.332z" fill="#4d6596"/><path d="m251.507 243.742v-14.332h-71.242v14.332c0 3.587 2.907 6.494 6.494 6.494h71.242c-3.587 0-6.494-2.907-6.494-6.494z" fill="#3c5082"/><path d="m191.436 182.954h-19.161c-1.534 0-2.777 1.243-2.777 2.777v17.804h24.715v-17.804c0-1.534-1.243-2.777-2.777-2.777z" fill="#607bad"/><path d="m240.866 182.954h-19.161c-1.534 0-2.777 1.243-2.777 2.777v17.804h24.715v-17.804c0-1.534-1.244-2.777-2.777-2.777z" fill="#607bad"/><path d="m290.295 182.954h-19.161c-1.534 0-2.777 1.243-2.777 2.777v17.804h24.715v-17.804c0-1.534-1.243-2.777-2.777-2.777z" fill="#7693c1"/><path d="m339.725 182.954h-19.161c-1.534 0-2.777 1.243-2.777 2.777v17.804h24.715v-17.804c0-1.534-1.243-2.777-2.777-2.777z" fill="#7693c1"/><path d="m169.498 201.468v21.111c0 4.343 3.521 7.864 7.864 7.864h157.275c4.343 0 7.864-3.521 7.864-7.864v-21.111z" fill="#607bad"/><path d="m243.643 222.579v-21.111h-74.144v21.111c0 4.343 3.521 7.864 7.864 7.864h74.144c-4.343.001-7.864-3.52-7.864-7.864z" fill="#4d6596"/><path d="m191.436 312.294h-19.161c-1.534 0-2.777 1.243-2.777 2.777v15.738h24.715v-15.738c0-1.533-1.243-2.777-2.777-2.777z" fill="#dae2fe"/><path d="m240.866 312.294h-19.161c-1.534 0-2.777 1.243-2.777 2.777v15.738h24.715v-15.738c0-1.533-1.244-2.777-2.777-2.777z" fill="#dae2fe"/><path d="m426.438 312.294h-19.161c-1.534 0-2.777 1.243-2.777 2.777v15.738h24.715v-15.738c0-1.533-1.243-2.777-2.777-2.777z" fill="#dae2fe"/><path d="m475.868 312.294h-19.161c-1.534 0-2.777 1.243-2.777 2.777v15.738h24.715v-15.738c0-1.533-1.243-2.777-2.777-2.777z" fill="#e9efff"/><path d="m290.295 312.294h-19.161c-1.534 0-2.777 1.243-2.777 2.777v15.738h24.715v-15.738c0-1.533-1.243-2.777-2.777-2.777z" fill="#e9efff"/><path d="m339.725 312.294h-19.161c-1.534 0-2.777 1.243-2.777 2.777v15.738h24.715v-15.738c0-1.533-1.243-2.777-2.777-2.777z" fill="#e9efff"/><path d="m161.183 329.776h189.635v24.54h-189.635z" fill="#dae2fe"/><path d="m161.183 354.315h81.369c.004-.695-.224-1.389-.692-1.958-10.212-12.409 1.783-22.582 1.783-22.582h-82.46z" fill="#bec8f7"/><path d="m395.152 329.776h83.493v24.54h-83.493z" fill="#dae2fe"/><path d="m395.152 329.776v24.54h27.992c0-.353 0-.688 0-1 0-14.814 4.124-21.29 6.094-23.54z" fill="#bec8f7"/><path d="m395.152 468.654c36.003-24.891 65.013-59.167 83.493-99.301v-17.202h-83.493z" fill="#bec8f7"/><path d="m395.152 352.151v116.503c9.884-6.833 19.236-14.378 27.992-22.553 0-30.905 0-79.764 0-92.786 0-.397.008-.779.013-1.165h-28.005z" fill="#abbaef"/><path d="m198.431 437.106v68.074c8.04 1.936 16.234 3.478 24.561 4.599v-119.826c-14.846 10.412-24.561 27.643-24.561 47.153z" fill="#934a2e"/><path d="m243.054 381.017v130.643c4.288.223 8.603.34 12.946.34s8.658-.117 12.946-.34v-130.643c-4.163-.957-8.492-1.479-12.946-1.479s-8.783.522-12.946 1.479z" fill="#934a2e"/><path d="m289.008 389.953v119.827c8.328-1.122 16.521-2.663 24.561-4.599v-68.073c0-19.512-9.715-36.743-24.561-47.155z" fill="#934a2e"/><path d="m244.554 441.945v-61.266c-8.519 1.719-16.357 5.316-23.062 10.345v50.921z" fill="#b76c4e"/><path d="m221.493 509.569c7.582 1.069 15.273 1.798 23.062 2.156v-47.871h-23.062z" fill="#b76c4e"/><path d="m267.446 511.725c7.789-.358 15.479-1.087 23.062-2.156v-45.715h-23.062z" fill="#b76c4e"/><path d="m85.562 312.294h19.161c1.534 0 2.777 1.243 2.777 2.777v15.738h-24.715v-15.738c0-1.533 1.243-2.777 2.777-2.777z" fill="#dae2fe"/><path d="m36.132 312.294h19.161c1.534 0 2.777 1.243 2.777 2.777v15.738h-24.715v-15.738c0-1.533 1.243-2.777 2.777-2.777z" fill="#e9efff"/><path d="m33.355 329.776h83.493v24.54h-83.493z" fill="#dae2fe" transform="matrix(-1 0 0 -1 150.204 684.091)"/><path d="m116.848 329.776h-34.063s7.121 5.08 7.121 24.54h26.943v-24.54z" fill="#bec8f7"/><path d="m350.817 492.97c16.068-6.75 31.258-15.171 45.368-25.033v-115.322h-45.368z" fill="#4d6596"/><path d="m373.501 386.097c0-8.695 7.049-15.744 15.744-15.744h6.94v-17.738h-45.368v140.355c7.776-3.267 15.342-6.933 22.684-10.957z" fill="#3c5082"/><path d="m399.165 287.19h-51.327c-2.947 0-5.336 2.389-5.336 5.336v56.453c0 2.947 2.389 5.336 5.336 5.336h51.327c2.947 0 5.336-2.389 5.336-5.336v-56.453c0-2.946-2.389-5.336-5.336-5.336z" fill="#607bad"/><path d="m370.127 344.347v-47.188c0-4.069 1.945-7.675 4.946-9.968h-27.235c-2.947 0-5.336 2.389-5.336 5.336v56.453c0 2.947 2.389 5.336 5.336 5.336h27.235c-3.002-2.294-4.946-5.9-4.946-9.969z" fill="#4d6596"/><path d="m115.815 467.937c14.11 9.862 29.3 18.283 45.368 25.033v-140.355h-45.368z" fill="#607bad"/><path d="m372.436 304.03c-6.209.54-10.833 6.014-10.833 12.246v13.253c0 1.646 1.335 2.981 2.981 2.981h17.833c1.646 0 2.981-1.335 2.981-2.981v-13.648c.001-6.922-5.911-12.463-12.962-11.851z" fill="#3c5082"/><path d="m372.437 304.03c-1.769.154-3.402.719-4.844 1.577 3.532 2.063 5.909 5.888 5.909 10.274v13.648c0 1.646-1.335 2.981-2.981 2.981h11.898c1.646 0 2.981-1.335 2.981-2.981v-13.648c-.001-6.922-5.913-12.464-12.963-11.851z" fill="#2d3c6b"/><path d="m290.508 441.945v-50.921c-6.704-5.029-14.542-8.626-23.062-10.345v61.266z" fill="#b76c4e"/><path d="m198.431 441.369h115.138v23.062h-115.138z" fill="#ce846a"/><path d="m235.614 452.9c0-5.538 3.777-10.182 8.891-11.531h-46.074v23.061h46.074c-5.114-1.348-8.891-5.992-8.891-11.53z" fill="#b76c4e"/><path d="m256 372.037c-35.879 0-65.068 29.19-65.068 65.069v66.141c4.941 1.358 9.94 2.573 15 3.624v-69.765c0-27.608 22.461-50.069 50.069-50.069s50.069 22.461 50.069 50.069v69.765c5.06-1.051 10.06-2.266 15-3.624v-66.141c-.001-35.878-29.191-65.069-65.07-65.069z" fill="#ce846a"/><path d="m243.53 387.513c-5.209-4.681-3.388-9.726-1.806-12.354.303-.504.452-1.069.457-1.631-29.261 6.355-51.249 32.441-51.249 63.578v66.141c4.941 1.358 9.94 2.573 15 3.624v-69.765c0-23.553 16.352-43.348 38.296-48.658-.173-.348-.403-.67-.698-.935z" fill="#b76c4e"/><path d="m141.587 230.283c-1.097-2.814-5.079-2.814-6.176 0l-22.575 57.907h51.327z" fill="#dae2fe"/><g><path d="m136.286 278.825 4.668-45.402c.09-.878.487-1.584 1.042-2.092l-.409-1.048c-1.097-2.814-5.079-2.814-6.176 0l-22.575 57.907h26.962c-2.438-2.286-3.896-5.634-3.512-9.365z" fill="#bec8f7"/></g><path d="m115.815 467.938c7.281 5.089 14.855 9.786 22.684 14.076v-95.917c0-8.695 7.049-15.744 15.744-15.744h6.94v-17.738h-45.368z" fill="#3c5082"/><path d="m164.162 287.19h-51.327c-2.947 0-5.336 2.389-5.336 5.336v56.453c0 2.947 2.389 5.336 5.336 5.336h51.327c2.947 0 5.336-2.389 5.336-5.336v-56.453c0-2.946-2.389-5.336-5.336-5.336z" fill="#607bad"/><path d="m135.124 344.347v-47.188c0-4.069 1.945-7.675 4.946-9.968h-27.235c-2.947 0-5.336 2.389-5.336 5.336v56.453c0 2.947 2.389 5.336 5.336 5.336h27.235c-3.001-2.294-4.946-5.9-4.946-9.969z" fill="#4d6596"/><path d="m137.434 304.03c-6.209.54-10.833 6.014-10.833 12.246v13.253c0 1.646 1.335 2.981 2.981 2.981h17.833c1.646 0 2.981-1.335 2.981-2.981v-13.648c.001-6.922-5.912-12.463-12.962-11.851z" fill="#3c5082"/><path d="m137.434 304.03c-1.769.154-3.402.719-4.844 1.577 3.532 2.063 5.908 5.888 5.908 10.274v13.648c0 1.646-1.335 2.981-2.981 2.981h11.897c1.646 0 2.981-1.335 2.981-2.981v-13.648c.002-6.922-5.91-12.464-12.961-11.851z" fill="#2d3c6b"/></g></svg>