<svg id="Capa_1" enable-background="new 0 0 512 512" height="512" viewBox="0 0 512 512" width="512" xmlns="http://www.w3.org/2000/svg"><g><path d="m512 255.977v1.349c-70.63 70.266-162.993 105.383-255.345 105.383h-.655c-92.437-.167-184.831-35.525-255.345-106.031l-.655-.66v-1.338c.359-69.775 28.611-132.9 74.137-178.838 46.699-47.14 111.581-76.204 183.183-75.838 65.422.345 124.99 25.195 170.03 65.812 52.003 46.868 84.65 114.74 84.65 190.161z" fill="#23d7ff"/><g><path d="m483.618 373.26c-42.549 82.463-128.587 138.751-227.617 138.74h-1.323c-98.646-.512-183.979-56.757-226.294-138.74z" fill="#13a5a5"/><path d="m201.857 435.083v23.093h-102.902c-29.259-22.763-53.44-51.733-70.571-84.917h135.041v23.392c0 10.613 8.597 19.211 19.211 19.211 5.312 0 10.112 2.155 13.59 5.632 3.476 3.477 5.631 8.288 5.631 13.589z" fill="#82f700"/><path d="m483.618 373.26c-42.549 82.463-128.587 138.751-227.617 138.74v-138.74z" fill="#028d91"/><path d="m483.618 373.26c-19.595 37.995-48.438 70.421-83.52 94.357h-97.227l1.088-94.357z" fill="#00cb84"/><path d="m400.855 89.926v160.991h-277.708v-79.701l63.03-63.029c11.477-11.477 27.03-17.962 43.264-18.037l3.189-.011c8.192-.043 16.096-1.728 23.371-4.811 12.384-5.227 22.944-14.496 29.984-26.517 10.699-18.261 30.528-30.528 53.227-30.528 17.024 0 32.437 6.901 43.595 18.048 11.147 11.157 18.048 26.571 18.048 43.595z" fill="#617489"/><path d="m400.855 89.926v160.991h-144.854v-165.589c12.384-5.227 22.944-14.496 29.984-26.517 10.699-18.261 30.528-30.528 53.227-30.528 17.024 0 32.437 6.901 43.595 18.048 11.147 11.157 18.048 26.571 18.048 43.595z" fill="#3f5670"/><path d="m512 255.977v1.349c-.137 27.088-4.48 53.173-12.414 77.647-4.3 13.277-9.657 26.074-15.964 38.285h-455.233c-6.72-12.995-12.351-26.639-16.778-40.815-7.554-24.151-11.611-49.817-11.611-76.425v-1.338c.359-69.775 28.611-132.9 74.137-178.838 1.902.721 3.751 1.568 5.547 2.509 7.533 3.931 14.031 9.587 18.986 16.424 14.401 19.906 36.968 32.253 61.533 32.598l4.12.052c19.884.282 38.881 8.301 52.943 22.363l18.828 18.829c5.853 5.865 12.604 10.622 19.905 14.166 9.9 4.799 20.846 7.36 32.056 7.36 9.741 0 19.292-1.934 28.125-5.583 8.833-3.67 16.936-9.054 23.836-15.943l19.937-19.916c7.1-7.12 16.746-11.113 26.805-11.113 10.47 0 19.947-4.245 26.815-11.103 6.857-6.869 11.104-16.341 11.104-26.816v-18.746c0-5.311.951-10.402 2.673-15.107 52.003 46.868 84.65 114.74 84.65 190.161z" fill="#85909f"/><path d="m512 255.977v1.349c-.137 27.088-4.48 53.173-12.414 77.647-4.3 13.277-9.657 26.074-15.964 38.285h-227.622v-190.475c9.9 4.799 20.846 7.36 32.056 7.36 9.741 0 19.292-1.934 28.125-5.583 8.833-3.67 16.936-9.054 23.836-15.943l19.937-19.916c7.1-7.12 16.746-11.113 26.805-11.113 10.47 0 19.947-4.245 26.815-11.103 6.857-6.869 11.104-16.341 11.104-26.816v-18.746c0-5.311.951-10.402 2.673-15.107 52.002 46.868 84.649 114.74 84.649 190.161z" fill="#617489"/><path d="m348.578 287.031v86.229h-185.153v-16.021c0-38.773 31.424-70.208 70.198-70.208 0-13.568 5.504-25.855 14.4-34.741 2.421-2.421 5.099-4.597 7.979-6.475 7.701-5.013 16.896-7.925 26.763-7.925h16.672c27.146 0 49.141 22.005 49.141 49.141z" fill="#3f5670"/><path d="m187.745 479.243c-3.072 1.429-6.517 2.229-10.187 2.229h-42.891c-57.003-30.73-100.981-82.442-121.664-144.735 11.008 2.912 20.95 10.592 25.941 21.29 2.667 5.707 3.936 11.979 6.347 17.802 2.411 5.835 6.336 11.509 12.235 13.739 11.893 4.491 25.504-6.72 37.397-2.219 11.68 4.416 13.461 20.277 21.942 29.461 7.68 8.32 20.032 10.218 31.349 10.197 11.328-.021 22.976-1.408 33.717 2.187 9.259 3.115 15.691 11.317 18.742 20.842.032.107.064.213.096.32 3.723 11.97-2.507 24.034-13.024 28.887z" fill="#3f5670"/><path d="m187.745 479.243c-3.072 1.429-6.517 2.229-10.187 2.229h-42.891c-21.355-11.509-40.886-25.973-58.048-42.837 10.731 1.77 21.273 5.317 30.809 11.194 23.104 14.219 53.586 9.061 75.474 25.093 1.771 1.302 3.392 2.742 4.843 4.321z" fill="#303c5a"/><path d="m496.429 344.129c-14.709 40.106-39.158 75.509-70.486 103.317-19.424 17.269-41.504 31.616-65.547 42.357h-33.227c-3.669 0-7.115-.8-10.187-2.229-10.518-4.853-16.747-16.917-13.024-28.885.032-.107.064-.213.096-.32 3.051-9.525 9.483-17.728 18.741-20.842 10.741-3.595 22.389-2.208 33.717-2.187 11.317.021 23.669-1.877 31.349-10.197 8.48-9.184 10.261-25.045 21.941-29.461 11.893-4.501 25.504 6.709 37.397 2.219 5.899-2.229 9.824-7.904 12.235-13.739 2.411-5.824 3.68-12.096 6.347-17.802 5.698-12.204 17.827-20.481 30.648-22.231z" fill="#3f5670"/><g fill="#303c5a"><path d="m425.943 447.446c-19.424 17.269-41.504 31.616-65.547 42.357h-33.227c-3.669 0-7.115-.8-10.187-2.229 1.451-1.579 3.072-3.019 4.843-4.32 21.888-16.032 50.956-9.206 74.06-23.425 8.886-5.473 18.404-14.629 30.058-12.383z"/><path d="m348.578 287.031v86.229h-92.576v-127.445c7.701-5.013 16.896-7.925 26.763-7.925h16.672c27.146 0 49.141 22.005 49.141 49.141z"/></g></g></g></svg>