<svg id="Capa_1" enable-background="new 0 0 512 512" height="512" viewBox="0 0 512 512" width="512" xmlns="http://www.w3.org/2000/svg"><g><g><path d="m256 0c-64.157 0-122.791 23.608-167.711 62.603l167.711 211.184 246.354-87.628c-30.399-107.439-129.182-186.159-246.354-186.159z" fill="#85faf4"/></g><g><path d="m335.031 102.265c-.4-.107-.799-.201-1.199-.288 2.784-15.774-6.917-31.326-22.68-35.531-15.764-4.205-31.922 4.448-37.364 19.513-.39-.124-.784-.241-1.183-.348-13.514-3.605-27.392 4.428-30.997 17.942s4.428 27.392 17.942 30.997c10.976 2.928 51.451 13.725 62.427 16.654 13.514 3.605 27.392-4.428 30.997-17.942 3.604-13.514-4.429-27.392-17.943-30.997z" fill="#389f4d"/></g><g><path d="m492.582 158.06c-12.999-31.366-32.053-59.583-55.705-83.201-5.873.373-11.223 2.665-15.41 6.283-5.519-7.554-14.439-12.465-24.511-12.465-16.757 0-30.342 13.584-30.342 30.342 0 5.108 1.268 9.918 3.498 14.141-1.148-.132-2.314-.207-3.498-.207-16.757 0-30.342 13.584-30.342 30.342v14.773h156.31z" fill="#60b550"/></g><g><path d="m9.646 186.158c13.755-48.612 41.509-91.344 78.634-123.566 169.315 18.329 201.246 90.325 404.302 95.474 3.776 9.113 7.053 18.484 9.772 28.092l-246.354 47.201z" fill="#85d249"/></g><g><path d="m9.646 186.158 246.354 47.201 47.831-9.164v-38.037c-224.169 0-215.551-123.566-215.551-123.566-37.125 32.222-64.879 74.954-78.634 123.566z" fill="#60b550"/></g><g><path d="m0 256c0 39.57 8.983 77.039 25.012 110.49l230.988 93.378 230.988-93.379c16.029-33.45 25.012-70.919 25.012-110.489 0-24.213-3.364-47.64-9.646-69.842h-492.708c-6.282 22.202-9.646 45.629-9.646 69.842z" fill="#64b6ec"/></g><g><path d="m280.862 317.583c9.073 0 16.428-7.355 16.428-16.428s-7.355-16.428-16.428-16.428h-55.854c-9.073 0-16.428-7.355-16.428-16.428s-7.355-16.428-16.428-16.428h-192.116c-.022 1.374-.036 2.75-.036 4.129 0 21.234 2.609 41.855 7.484 61.583z" fill="#3188ca"/></g><g><path d="m376.428 317.583c-9.073 0-16.428 7.355-16.428 16.428s-7.355 16.428-16.428 16.428h-71.144c-9.073 0-16.428 7.355-16.428 16.428s7.355 16.428 16.428 16.428h172.986l41.573-16.806c7.427-15.5 13.319-31.871 17.528-48.906z" fill="#3188ca"/></g><g><path d="m287.403 202.586c0 9.073-7.355 16.428-16.428 16.428h-14.564c-9.073 0-16.428 7.355-16.428 16.428s7.355 16.428 16.428 16.428h199.039c9.073 0 16.428-7.355 16.428-16.428s7.355-16.428 16.428-16.428h21.032c-1.622-11.202-3.962-22.172-6.985-32.856h-198.522c-9.073 0-16.428 7.355-16.428 16.428z" fill="#3188ca"/></g><g><path d="m399.022 274.387c-4.795-2.508-9.589 3.387-6.176 7.585 31.242 38.428 45.5 78.33 51.672 101.686l35.797-14.471c-22.696-56.37-58.809-83.041-81.293-94.8z" fill="#60b550"/></g><g><path d="m389.564 312.154c-4.795-2.508-9.589 3.387-6.176 7.585 20.272 24.935 33.387 50.485 41.789 71.738l31.858-12.879c-21.786-37.377-49.152-56.863-67.471-66.444z" fill="#85d249"/></g><g><path d="m496.338 344.286c-24.193-73.174-58.806-115.655-81.051-137.032-4.107-3.947-10.578.969-7.863 5.976 33.638 62.017 49.331 126.881 56.009 162.781l23.554-9.522c3.459-7.216 6.568-14.631 9.351-22.203z" fill="#a3ea6e"/></g><g><path d="m256 459.868h154.83l.005.001c32.233-24.52 58.481-56.502 76.153-93.38-111.602 3.037-171.296 26.35-230.988 49.663z" fill="#85d249"/></g><g><path d="m412.856 445.006c-56.835-7.749-96.588-21.631-136.127-36.887-6.962 2.657-13.846 5.345-20.729 8.033v43.716h154.83l.005.001c5.416-4.12 10.646-8.468 15.712-12.997z" fill="#60b550"/></g><g><path d="m62.429 384.357c5.949-34.203 21.433-103.223 57.136-169.047 2.716-5.007-3.756-9.923-7.862-5.976-24.145 23.204-62.864 71.271-87.011 156.469.111.233.229.463.341.696z" fill="#60b550"/></g><g><path d="m80.659 393.063c4.948-21.55 18.677-66.197 53.484-109.011 3.413-4.198-1.381-10.093-6.176-7.585-23.099 12.08-60.58 39.903-83.123 99.494z" fill="#85d249"/></g><g><path d="m33.215 370.406c4.058-22.361 29.179-151.044 87.128-254.153 2.881-5.126-3.865-10.183-7.941-5.946-33.213 34.522-87.375 103.244-106.695 199.609 4.247 19.811 10.79 38.767 19.331 56.586z" fill="#a3ea6e"/></g><g><path d="m410.83 459.868c-42.996 32.705-96.641 52.132-154.83 52.132-101.815 0-189.743-59.441-230.988-145.51 194.728 5.297 231.421 72.327 385.818 93.378z" fill="#a3ea6e"/></g><g><path d="m61.357 368.3c-11.489-.848-23.574-1.463-36.345-1.811 41.245 86.07 129.173 145.511 230.988 145.511 58.189 0 111.834-19.427 154.83-52.132-173.17 52.869-301.83-21.868-349.473-91.568z" fill="#85d249"/></g></g></svg>