<?xml version="1.0" encoding="iso-8859-1"?>
<!-- Generator: Adobe Illustrator 19.0.0, SVG Export Plug-In . SVG Version: 6.00 Build 0)  -->
<svg version="1.1" id="Capa_1" xmlns="http://www.w3.org/2000/svg" xmlns:xlink="http://www.w3.org/1999/xlink" x="0px" y="0px"
	 viewBox="0 0 512 512" style="enable-background:new 0 0 512 512;" xml:space="preserve">
<path style="fill:#AFEAF2;" d="M512,256c0,141.385-114.615,256-256,256S0,397.385,0,256S114.615,0,256,0S512,114.615,512,256z"/>
<path style="fill:#D5F3F7;" d="M289.983,124.275C290.389,132.889,283.525,140,275,140h-95c-8.077,0-15.026-6.207-15.406-14.275
	c-0.406-8.614,6.458-15.725,14.983-15.725H150c-8.077,0-15.026-6.207-15.406-14.275C134.188,87.111,141.052,80,149.576,80H245
	c8.284,0,15,6.716,15,15v0.424c0,8.05,6.526,14.576,14.576,14.576C282.653,110,289.603,116.207,289.983,124.275z M72.652,90H61.13
	c-8.044,9.434-15.413,19.458-22.036,30h33.558c8.284,0,15-6.716,15-15S80.936,90,72.652,90z M355.359,20H285
	c-8.284,0-15,6.716-15,15s6.716,15,15,15h120c0.906,0,1.79-0.094,2.652-0.248C391.553,37.895,374.024,27.868,355.359,20z"/>
<path style="fill:#D8694B;" d="M162.067,290.69L362.43,79.366c3.155-3.328,8.456-3.328,11.611,0L509.83,222.583
	c1.426,10.938,2.17,22.09,2.17,33.417c0,3.944-0.091,7.866-0.27,11.766c-0.588,12.816-11.108,22.924-23.937,22.924H162.067z"/>
<path style="fill:#C5573A;" d="M379.679,174.848l7.639,137.495h-32.349l7.639-137.495c0.252-4.53,3.999-8.075,8.536-8.075l0,0
	C375.681,166.773,379.428,170.317,379.679,174.848z M338.28,175.919c-3.873-2.363-8.918-1.288-11.492,2.448l-78.125,113.401
	l27.616,16.846l65.082-121.357C343.506,183.259,342.154,178.282,338.28,175.919z M414.718,178.367
	c-2.574-3.736-7.619-4.811-11.492-2.448c-3.873,2.363-5.226,7.34-3.082,11.339l65.082,121.357l27.616-16.846L414.718,178.367z
	 M385.363,91.308L374.04,79.366c-3.155-3.328-8.456-3.328-11.611,0L242.808,205.531h34.256L385.363,91.308z"/>
<path style="fill:#DF7F66;" d="M418.847,126.624c-6.71,4.496-14.773,7.126-23.457,7.126c-11.821,0-22.502-4.862-30.169-12.689
	c-7.666,7.826-18.347,12.689-30.169,12.689c-7.08,0-13.752-1.744-19.612-4.824l46.989-49.559c3.155-3.328,8.456-3.328,11.611,0
	L418.847,126.624z"/>
<path style="fill:#AC6A51;" d="M15.174,343C5.36,315.839,0,286.546,0,256c0-13.056,0.984-25.882,2.869-38.412L155.96,56.123
	c3.155-3.328,8.456-3.328,11.611,0L439.568,343H15.174z"/>
<path style="fill:#945B44;" d="M120.834,219.005L69.01,328.934c-3.746,7.945-13.397,11.113-21.122,6.932s-10.353-13.993-5.75-21.474
	L105.82,210.88c2.377-3.864,7.36-5.198,11.35-3.039C121.161,210,122.769,214.901,120.834,219.005z M240.225,209.073
	c-2.589-3.727-7.637-4.781-11.501-2.404s-5.198,7.36-3.038,11.35l65.554,121.103l27.55-16.954L240.225,209.073z M172.174,166.773
	c-4.537,0-8.284,3.544-8.536,8.075L156,312.343h32.349l-7.639-137.495C180.458,170.317,176.712,166.773,172.174,166.773z
	 M23.144,239.625L182.349,71.71L167.57,56.123c-3.155-3.328-8.456-3.328-11.611,0L2.869,217.588C0.984,230.118,0,242.944,0,256
	c0,56.896,18.572,109.448,49.968,151.948C30.806,370.003,20,327.119,20,281.706C20,267.403,21.078,253.352,23.144,239.625z"/>
<path style="fill:#FF7118;" d="M160,40.711L87.25,24.257c-4.157-0.94-4.157-6.863,0-7.803L160,0V40.711z"/>
<path style="fill:#BD7C63;" d="M209.321,100.157C203.023,106.247,194.452,110,185,110c-9.796,0-18.647-4.029-25-10.515
	C153.647,105.971,144.796,110,135,110c-8.531,0-16.345-3.055-22.418-8.126L152.5,59.772V8.75c0-4.833,3.917-8.75,8.75-8.75
	S170,3.917,170,8.75v49.936L209.321,100.157z"/>
<path style="fill:#A39C12;" d="M347.268,495.231c-6.153-7.789-10.622-17.097-12.701-27.498c-1.474-7.371-1.622-14.696-0.638-21.742
	c-4.129,1.784-8.502,3.174-13.09,4.091c-35.202,7.039-69.445-15.791-76.484-50.992c-7.039-35.202,15.791-69.445,50.992-76.484
	c3.234-0.647,6.46-1.037,9.657-1.193c4.753-25.292,24.357-46.401,51.14-51.757c17.569-3.513,34.898,0.416,48.727,9.608
	c8.002-19.412,25.237-34.596,47.371-39.023c22.631-4.526,44.854,3.308,59.718,18.824C510.693,366.97,442.677,458.81,347.268,495.231
	z"/>
<path style="fill:#968F0F;" d="M510.414,257.508c-6.963-0.577-14.122-0.209-21.317,1.23c-26.034,5.206-46.306,23.066-55.718,45.898
	c-16.265-10.812-36.648-15.433-57.312-11.3c-24.814,4.962-44.381,21.424-54.307,42.727c1.65-0.607,3.425-0.955,5.285-0.955
	c8.468,0,15.333,6.865,15.333,15.333c0,8.468-6.865,15.333-15.333,15.333c-7.066,0-12.999-4.786-14.776-11.288
	c-2.561,0.247-5.134,0.612-7.712,1.128c-28.278,5.655-49.758,26.238-57.904,51.909c-0.935-2.724-1.717-5.532-2.298-8.434
	c-7.039-35.202,15.791-69.445,50.992-76.484c3.234-0.647,6.46-1.037,9.657-1.193c4.753-25.292,24.357-46.401,51.14-51.757
	c17.569-3.513,34.898,0.416,48.727,9.608c8.002-19.412,25.237-34.596,47.371-39.023C474.102,235.87,495.579,243.032,510.414,257.508
	z M450.129,319.775c-8.468,0-15.333,6.865-15.333,15.333c0,8.469,6.865,15.333,15.333,15.333c8.469,0,15.333-6.865,15.333-15.333
	C465.462,326.64,458.597,319.775,450.129,319.775z M402.651,372.157c-8.468,0-15.333,6.865-15.333,15.333
	s6.865,15.333,15.333,15.333c8.469,0,15.333-6.865,15.333-15.333S411.12,372.157,402.651,372.157z"/>
<path style="fill:#D0C731;" d="M345.507,495.901c-24.409,9.111-50.582,14.596-77.866,15.818c-1.873,0.173-4.417,0.281-7.224,0.281
	c-0.805,0-1.585-0.01-2.338-0.026c-0.693,0.01-1.384,0.026-2.079,0.026c-114.133,0-210.805-74.696-243.838-177.863
	C19.269,331.469,26.961,330,35,330c8.86,0,17.303,1.779,25,4.99C60.006,299.096,89.105,270,125,270
	c28.101,0,52.033,17.833,61.106,42.799C192.086,310.985,198.427,310,205,310c35.898,0,65,29.102,65,65
	c0,7.606-1.319,14.902-3.72,21.686C274.942,392.412,284.688,390,295,390c35.898,0,65,29.102,65,65
	C360,470.502,354.564,484.73,345.507,495.901z"/>
<path style="fill:#BFB617;" d="M125,270c8.614,0,16.834,1.683,24.356,4.726c-13.497,4.326-25.728,11.469-36.022,20.723
	c5.085,2.496,8.594,7.71,8.594,13.757c0,8.468-6.865,15.333-15.333,15.333c-4.984,0-9.399-2.388-12.199-6.071
	c-8.879,14.866-13.998,32.237-14.001,50.812c-11.758-4.904-24.656-7.622-38.191-7.622c-6.365,0-12.584,0.615-18.615,1.763
	c-4.382-9.465-8.21-19.237-11.427-29.284C19.269,331.469,26.961,330,35,330c8.86,0,17.303,1.779,25,4.99
	C60.006,299.096,89.105,270,125,270z M182.349,435.242c-8.468,0-15.333,6.865-15.333,15.333c0,8.468,6.865,15.333,15.333,15.333
	s15.333-6.865,15.333-15.333S190.817,435.242,182.349,435.242z M134.023,369.28c-8.469,0-15.333,6.865-15.333,15.333
	c0,8.469,6.865,15.333,15.333,15.333s15.333-6.865,15.333-15.333C149.356,376.145,142.491,369.28,134.023,369.28z M274.667,441.152
	c-8.469,0-15.333,6.865-15.333,15.333s6.865,15.333,15.333,15.333c8.468,0,15.333-6.865,15.333-15.333
	S283.135,441.152,274.667,441.152z M209.321,337.714c-8.468,0-15.333,6.865-15.333,15.333c0,8.469,6.865,15.333,15.333,15.333
	s15.333-6.865,15.333-15.333C224.654,344.579,217.789,337.714,209.321,337.714z"/>
<g>
</g>
<g>
</g>
<g>
</g>
<g>
</g>
<g>
</g>
<g>
</g>
<g>
</g>
<g>
</g>
<g>
</g>
<g>
</g>
<g>
</g>
<g>
</g>
<g>
</g>
<g>
</g>
<g>
</g>
</svg>
