<svg id="Capa_1" enable-background="new 0 0 512 512" height="512" viewBox="0 0 512 512" width="512" xmlns="http://www.w3.org/2000/svg"><g><path d="m3.991 301.276c-2.547-14.27-3.911-28.949-3.988-43.933-.722-140.552 113.144-256.096 253.692-257.333 69.587-.612 132.83 26.542 179.32 71.053 8.17 7.823 12.751 18.673 12.751 29.984 0 118.686-96.214 214.899-214.899 214.899h-209.312c-8.631.001-16.047-6.173-17.564-14.67z" fill="#76b6fa"/><path d="m190 92.382c0 8.284-6.716 15-15 15h-70c-8.284 0-15-6.716-15-15s6.716-15 15-15h70c8.284 0 15 6.716 15 15zm111.768-33.5h-5v-5c0-8.285-6.716-15-15-15h-30c-8.284 0-15 6.715-15 15v5h-5c-8.284 0-15 6.715-15 15 0 8.284 6.716 15 15 15h70c8.284 0 15-6.716 15-15 0-8.285-6.716-15-15-15zm-212.449 115.934h-40c-8.284 0-15 6.716-15 15s6.716 15 15 15h40c8.284 0 15-6.716 15-15s-6.716-15-15-15zm160.07-52.977h-40c-8.284 0-15 6.716-15 15s6.716 15 15 15h40c8.284 0 15-6.716 15-15s-6.716-15-15-15z" fill="#a7d0fc"/><path d="m230 250c0 49.706-40.294 90-90 90s-90-40.294-90-90 40.294-90 90-90 90 40.294 90 90z" fill="#fffac1"/><path d="m158.638 338.067c-6.013 1.267-12.248 1.933-18.638 1.933-49.706 0-90-40.294-90-90s40.294-90 90-90c6.39 0 12.625.666 18.638 1.933-40.762 8.583-71.362 44.752-71.362 88.067s30.6 79.484 71.362 88.067z" fill="#fff68e"/><path d="m299.944 236.936 82.732-161.495c1.711-3.34 5.148-5.441 8.9-5.441h40.322c44.371 41.976 73.731 99.658 79.182 164.149.127 1.5-1.069 2.787-2.574 2.787z" fill="#8f562f"/><path d="m512 256c0 10.583-.642 21.015-1.89 31.26h-192.965c-16.078 0-31.71 5.026-44.936 14.167-13.091 9.048-28.628 13.896-44.545 13.896h-82.846l125.819-245.602c4.683-9.141 14.089-14.891 24.36-14.891h6.197c3.525 0 6.383-2.858 6.383-6.383 0-3.525 2.858-6.383 6.383-6.383h38.937c5.51 0 10.556 3.085 13.068 7.988l66.065 128.962c3.716 7.254 14.084 7.254 17.8 0l5.59-10.912c1.711-3.34 5.148-5.441 8.9-5.441h4.22c3.753 0 7.189 2.101 8.9 5.441l33.601 65.591c.635 7.351.959 14.791.959 22.307z" fill="#b56d3c"/><path d="m304.173 69.721-125.819 245.602h-33.536l125.819-245.602c4.683-9.141 14.089-14.891 24.36-14.891h6.197c3.525 0 6.383-2.858 6.383-6.383s2.858-6.383 6.383-6.383c-.001 0-5.104 18.516-9.787 27.657zm27.228 38.914c-.463-3.47-3.423-6.061-6.923-6.061-3.538 0-6.517 2.646-6.935 6.159l-22.415 188.394h61.416zm53.377 37.337c-1.563-3.132-5.203-4.624-8.514-3.489-3.347 1.147-5.307 4.616-4.563 8.075l39.884 185.483 58.098-19.914zm82.921 58.054c-1.563-3.132-5.203-4.624-8.514-3.489-3.347 1.147-5.307 4.616-4.563 8.075l26.172 121.715c10.123-15.387 18.63-31.932 25.282-49.391zm-182.599-18.014c.714-3.427-1.219-6.853-4.521-8.014-3.338-1.173-7.026.335-8.585 3.511l-83.619 170.302 57.941 20.366z" fill="#9b5e34"/><path d="m323.874 60.117c-8.032 6.399-17.998 9.883-28.267 9.883h-25.114l33.073-64.56c1.711-3.34 5.147-5.44 8.9-5.44h21.744c3.752 0 7.189 2.101 8.9 5.44l22.947 44.793h-13.917c-10.269.001-20.235 3.485-28.266 9.884z" fill="#fffac1"/><path d="m304.479 69.124c-2.904.579-5.875.876-8.872.876h-25.114l33.073-64.56c1.711-3.34 5.147-5.44 8.9-5.44h21.744c2.16 0 4.215.696 5.896 1.923-1.24.905-2.278 2.1-3.004 3.517z" fill="#fff68e"/><path d="m199.148 505.664c-42.941-9.737-81.784-30.269-113.525-58.592-57.684-51.471-20.813-147.072 56.496-147.072h366.114c-1.263 7.29-2.834 14.475-4.7 21.54-.846 3.203-5.608 9.367-7.073 9.367-26.144 0-48.096 17.945-54.21 42.19-15.158-9.908-33.274-15.669-52.735-15.669-43.854 0-80.876 29.25-92.622 69.304-6.604-1.808-13.595-2.68-20.821-2.464-36.925 1.1-67.06 31.069-68.35 67.988-.073 2.089-.055 4.158.05 6.204.238 4.655-4.078 8.235-8.624 7.204z" fill="#169b62"/><path d="m510.864 280.275c-.788 8.38-1.98 16.642-3.557 24.768h-282.709c.994-21.507 18.745-38.638 40.498-38.638 8.527 0 16.438 2.633 22.968 7.129 4.561-34.244 33.882-60.661 69.373-60.661 34.796 0 63.662 25.393 69.077 58.659 10.555-7.073 23.252-11.199 36.913-11.199 18.584-.001 35.385 7.635 47.437 19.942z" fill="#169b62"/><path d="m231.955 510.885c-11.314-1.054-22.414-2.844-33.252-5.322-2.689-7.466-4.155-15.516-4.155-23.909 0-38.962 31.585-70.548 70.548-70.548 6.462 0 12.722.869 18.668 2.497 11.746-40.054 48.768-69.304 92.622-69.304 19.461 0 37.576 5.761 52.735 15.669 6.115-24.245 28.067-42.19 54.21-42.19 7.124 0 13.937 1.333 20.202 3.762-.666 2.524-1.371 5.033-2.112 7.526-1.007 3.387-3.743 10.155-4.002 10.2-25.765 4.431-44.358 25.837-46.275 50.768-16.618-7.195-35.448-9.802-54.628-6.504-43.219 7.433-74.748 42.535-79.536 84-6.136-.596-12.452-.392-18.821.704-25.128 4.32-62.041 43.039-66.204 42.651z" fill="#1ed688"/><path d="m293.088 449.528c6.411-.815 12.73-.743 18.833.121 6.598-41.216 39.634-74.904 83.137-80.438 19.305-2.456 38.003.973 54.291 8.89 3.007-24.822 22.519-45.395 48.453-48.693 1.211-.154 2.418-.267 3.619-.342-31.446 105.785-129.424 182.934-245.421 182.934-8.109 0-16.129-.377-24.045-1.115 3.83-31.283 28.437-57.198 61.133-61.357z" fill="#35e298"/><path d="m214.606 338.447h-28.915c-4.142 0-7.5-3.358-7.5-7.5 0-4.142 3.358-7.5 7.5-7.5h28.915c4.142 0 7.5 3.358 7.5 7.5 0 4.142-3.357 7.5-7.5 7.5zm121.311-31.702c0-4.142-3.358-7.5-7.5-7.5h-16.087c-4.142 0-7.5 3.358-7.5 7.5 0 4.142 3.358 7.5 7.5 7.5h16.087c4.142 0 7.5-3.358 7.5-7.5zm78.128 16.702c0-4.142-3.358-7.5-7.5-7.5h-16.087c-4.142 0-7.5 3.358-7.5 7.5 0 4.142 3.358 7.5 7.5 7.5h16.087c4.142 0 7.5-3.358 7.5-7.5zm-151.239 48.2c0-4.142-3.358-7.5-7.5-7.5h-18.418c-4.142 0-7.5 3.358-7.5 7.5 0 4.142 3.358 7.5 7.5 7.5h18.418c4.143 0 7.5-3.358 7.5-7.5zm-75.395 31.274c0-4.142-3.358-7.5-7.5-7.5h-18.418c-4.142 0-7.5 3.358-7.5 7.5 0 4.142 3.358 7.5 7.5 7.5h18.418c4.142 0 7.5-3.358 7.5-7.5z" fill="#1ab975"/><path d="m3.767 300 4.596-4.125c5.696-5.113 13.818-6.509 20.895-3.592l10.259 4.229c5.372 2.214 11.443 1.973 16.621-.662l12.628-6.424c5.909-3.006 12.926-2.875 18.718.35l7.194 4.004c6.808 3.79 15.201 3.262 21.48-1.352 6.444-4.735 15.095-5.156 21.969-1.071l14.541 8.643c-9.486 54.764-34.268 105.013-66.714 147.367-21.319-18.958-39.449-41.424-53.484-66.493-1.596-2.851 3.552-6.361 2.063-9.278-4.767-9.34-8.978-19.012-12.588-28.972-.775-2.139-8.214-3.668-8.934-5.833-3.956-11.9-7.061-24.188-9.244-36.791z" fill="#0a4499"/><path d="m32.47 380.873c-7.805-13.941-14.343-28.688-19.459-44.083 5.024-2.424 10.931-2.667 16.247-.476l10.259 4.229c5.372 2.214 11.442 1.973 16.621-.662l12.628-6.424c5.909-3.006 12.926-2.875 18.718.35l7.193 4.004c6.808 3.79 15.201 3.262 21.48-1.352 6.444-4.735 15.095-5.157 21.969-1.071l5.209 3.097c-3.995 12.791-8.792 25.265-14.28 37.373-4.522-.251-9.095 1.041-12.898 3.835-6.279 4.614-14.672 5.142-21.48 1.352l-7.193-4.004c-5.792-3.225-12.81-3.355-18.718-.35l-12.628 6.424c-5.179 2.635-11.25 2.876-16.621.662z" fill="#0a66ea"/><path d="m185.795 95.503c-1.572 0-3.145-.493-4.472-1.479l-14.143-10.503c-3.325-2.47-4.02-7.168-1.55-10.493 2.471-3.326 7.169-4.019 10.493-1.55l9.671 7.183 9.67-7.183c3.325-2.467 8.021-1.776 10.493 1.55 2.47 3.325 1.775 8.023-1.55 10.493l-14.142 10.503c-1.325.986-2.897 1.479-4.47 1.479zm-83.668 32.786 14.142-10.503c3.325-2.47 4.02-7.168 1.55-10.493-2.472-3.326-7.168-4.017-10.493-1.55l-9.67 7.183-9.671-7.183c-3.324-2.469-8.022-1.776-10.493 1.55-2.47 3.325-1.775 8.023 1.55 10.493l14.143 10.503c1.327.985 2.899 1.479 4.472 1.479s3.143-.494 4.47-1.479z" fill="#254167"/></g></svg>