<?xml version="1.0" encoding="iso-8859-1"?>
<!-- Generator: Adobe Illustrator 19.0.0, SVG Export Plug-In . SVG Version: 6.00 Build 0)  -->
<svg version="1.1" id="Capa_1" xmlns="http://www.w3.org/2000/svg" xmlns:xlink="http://www.w3.org/1999/xlink" x="0px" y="0px"
	 viewBox="0 0 512 512" style="enable-background:new 0 0 512 512;" xml:space="preserve">
<circle style="fill:#0666A9;" cx="256" cy="256" r="256"/>
<path style="fill:#1E2D63;" d="M269.558,511.643C404.639,504.594,512,392.837,512,256c0-9.825-0.573-19.514-1.65-29.051L455,171.6
	l-92.894,17.742l-26.378-26.378L217.07,217.043L153.026,153L75.5,246l155.604,155.604l-22.408,49.177L269.558,511.643z"/>
<polygon style="fill:#FFFFFF;" points="283.452,453.219 257.801,244.333 254.199,244.333 228.548,453.219 208.696,450.781 
	236.506,224.333 275.494,224.333 303.304,450.781 "/>
<polygon style="fill:#E0E0E0;" points="275.494,224.333 255.952,224.333 255.952,244.333 257.801,244.333 283.452,453.219 
	303.304,450.781 "/>
<rect x="299.95" y="171.6" style="fill:#FF7C11;" width="155.05" height="55.8"/>
<rect x="138.93" y="162.96" style="fill:#FFF04A;" width="196.8" height="73.07"/>
<rect x="255.95" y="162.96" style="fill:#FFDA45;" width="79.78" height="73.07"/>
<rect x="75.5" y="153" style="fill:#FE9A35;" width="77.53" height="93"/>
<circle style="fill:#FFDA45;" cx="256" cy="227.75" r="31.75"/>
<path style="fill:#FE9A35;" d="M256,196c-0.016,0-0.032,0.001-0.048,0.001v63.498c0.016,0,0.031,0.001,0.048,0.001
	c17.535,0,31.75-14.215,31.75-31.75S273.535,196,256,196z"/>
<g>
</g>
<g>
</g>
<g>
</g>
<g>
</g>
<g>
</g>
<g>
</g>
<g>
</g>
<g>
</g>
<g>
</g>
<g>
</g>
<g>
</g>
<g>
</g>
<g>
</g>
<g>
</g>
<g>
</g>
</svg>
