<svg height="512" viewBox="0 0 51 58" width="512" xmlns="http://www.w3.org/2000/svg"><g id="Page-1" fill="none" fill-rule="evenodd"><g id="031---World-Location" fill-rule="nonzero" transform="translate(0 -1)"><path id="Shape" d="m23.14 13c-4.1336096.1434371-8.1503429 1.4086044-11.62 3.66-1.475056.95653-2.83706454 2.0770001-4.06 3.34-4.72081793 4.8698957-7.05150873 11.575151-6.36899169 18.3232009.68251704 6.7480498 4.30864766 12.8508152 9.90899169 16.6767991.998974.6825306 2.0487042 1.2876299 3.14 1.81 5.4579179 2.5887811 11.7151993 2.9264301 17.42.94 1.6071981-.5480338 3.1444108-1.2830765 4.58-2.19 8.5427109-5.3041121 12.6495096-15.5427583 10.14-25.28l-.09.13z" fill="#4482c3"/><g fill="#4fba6f"><path id="Shape" d="m23.35 19.27-2.13.36c-.5816141.0966628-1.1704184.1434995-1.76.14-2.1346745.0011745-4.2220902-.6285292-6-1.81l-1.92-1.28c3.4618295-2.2550064 7.4713315-3.5269864 11.6-3.68-.0930115.6626112-.1397912 1.3308926-.14 2-.0022888 1.4305902.1147839 2.8588774.35 4.27z"/><path id="Shape" d="m43 49c-1.8015442 2.6344595-4.1349905 4.8623046-6.85 6.54l-2.61-.65c-1.3951365-.3575354-2.3235626-1.6759852-2.19-3.11.13-1.52 1.53-2.24 2.68-3 .9092207-.7228675 1.9577122-1.2505174 3.08-1.55.7640748-.0784906 1.5360139-.0209337 2.28.17 1.3385876.1518072 2.5984942.7102145 3.61 1.6z"/><path id="Shape" d="m31.55 57.72c-5.7048007 1.9864301-11.9620821 1.6487811-17.42-.94l.82-.47c2.6203725-1.4929845 5.6753629-2.0368788 8.65-1.54.9287195.1520633 1.8376419.406964 2.71.76l3.69 1.47s.68.3 1.55.72z"/><path id="Shape" d="m13.66 29.35c-.65.74-1.48 1.33-1.45 2.42 0 .77.37 1.48.41 2.25.0456862.5209069-.1241907 1.0377664-.47 1.43-.7420147.6219246-1.7949722.7100047-2.63.22-.52621762-.3764034-1.08126768-.710771-1.66-1-1.66-.67-2.76 1.07-2.14 2.52 1.58 3.72 6.28 5.31 7.2 9.46.3962359 1.9658248.2475434 4.0025666-.43 5.89-.3342272.9080062-.8400949 1.7431971-1.49 2.46-5.60034403-3.8259839-9.22647465-9.9287493-9.90899169-16.6767991-.68251704-6.7480499 1.64817376-13.4533052 6.36899169-18.3232009.85.62 1.7 1.25 2.59 1.83.93528.5782672 1.9229811 1.0670956 2.95 1.46 1 .41 2.32.65 2.81 1.73.75 1.73-1.15 3.19-2.15 4.33z"/><path id="Shape" d="m32.58 36.24c-.566361 1.7432616-1.0239084 3.5200149-1.37 5.32-.41 1.82-1.06 4.56-3.53 4.06s-1.74-2.62-2.05-4.43c-.3135317-1.9107776-1.1750675-3.6894322-2.48-5.12-1.46-1.55-2.44-2.64-1.45-4.84.8759367-1.692757 2.3743889-2.9797051 4.18-3.59l.26-.08c.42.8133333.86 1.5833333 1.32 2.31.11.19.23.36.35.54 1.385542 2.1020062 2.9839824 4.0556556 4.77 5.83z"/></g><path id="Shape" d="m51 15c-.0466416 5.2792902-1.5934551 10.4364912-4.46 14.87-.08.14-.17.28-.26.41l-.09.13c-2.4517266 3.731266-5.5665104 6.9816226-9.19 9.59-1.5836964-1.1174908-3.063058-2.3759522-4.42-3.76-1.7860176-1.7743444-3.384458-3.7279938-4.77-5.83-.12-.18-.24-.35-.35-.54-.46-.7333333-.9-1.5033333-1.32-2.31-1.3567137-2.6008911-2.2980997-5.3980559-2.79-8.29-.2352161-1.4111226-.3522888-2.8394098-.35-4.27.0002088-.6691074.0469885-1.3373888.14-2 .1833033-1.3030602.5537922-2.572827 1.1-3.77 2.2642808-5.01564802 7.2569379-8.23958335 12.76-8.23958335s10.4957192 3.22393533 12.76 8.23958335c.8245776 1.8114128 1.2475829 3.779752 1.24 5.77z" fill="#e64c3c"/><circle id="Oval" cx="37" cy="15" fill="#f5efca" r="9"/><path id="Shape" d="m37 25c-5.5228475 0-10-4.4771525-10-10s4.4771525-10 10-10 10 4.4771525 10 10c0 2.6521649-1.0535684 5.195704-2.9289322 7.0710678s-4.4189029 2.9289322-7.0710678 2.9289322zm0-18c-4.418278 0-8 3.581722-8 8s3.581722 8 8 8 8-3.581722 8-8c0-2.1217319-.8428547-4.1565632-2.3431458-5.65685425-1.500291-1.50029103-3.5351223-2.34314575-5.6568542-2.34314575z" fill="#c03a2b"/></g></g></svg>