<svg height="512pt" viewBox="0 0 512 512" width="512pt" xmlns="http://www.w3.org/2000/svg"><path d="m512 256c0 7.304688-.304688 14.546875-.917969 21.703125-1.964843 23.507813-7.117187 46.109375-15.015625 67.386719-12.214844 32.921875-31.011718 62.648437-54.796875 87.570312-11.890625 12.464844-25.035156 23.742188-39.222656 33.613282-41.421875 28.832031-91.753906 45.726562-146.046875 45.726562-81.15625 0-153.484375-37.761719-200.378906-96.675781-6.394532-8.023438-12.320313-16.445313-17.710938-25.222657-20.847656-33.792968-34.035156-72.808593-37.179687-114.613281-.480469-6.4375-.730469-12.9375-.730469-19.488281 0-58.578125 19.675781-112.578125 52.789062-155.722656 14.023438-18.273438 30.457032-34.59375 48.828126-48.492188 21.535156-16.320312 45.722656-29.300781 71.816406-38.171875 3.058594-1.042969 6.140625-2.023437 9.257812-2.957031 23.214844-6.9375 47.832032-10.65625 73.308594-10.65625 83.007812 0 156.785156 39.507812 203.554688 100.738281 10.210937 13.363281 19.132812 27.761719 26.585937 43.007813 4.375 8.976562 8.253906 18.234375 11.585937 27.761718.019532.042969.03125.097657.050782.136719 9.21875 26.414063 14.222656 54.804688 14.222656 84.355469zm0 0" fill="#52b5d8"/><path d="m511.082031 277.703125c-1.964843 23.507813-7.117187 46.109375-15.015625 67.386719-12.214844 32.921875-31.011718 62.648437-54.796875 87.570312-11.890625 12.464844-25.035156 23.742188-39.222656 33.613282h-93.34375c-5.207031 0-9.917969-2.121094-13.324219-5.535157-3.417968-3.40625-5.527344-8.121093-5.527344-13.332031 0-10.417969 8.441407-18.863281 18.851563-18.863281h104.34375c5.203125 0 9.929687-2.097657 13.324219-5.515625 3.417968-3.40625 5.539062-8.121094 5.539062-13.332032 0-10.417968-8.445312-18.863281-18.863281-18.863281h-15.996094c-5.203125 0-9.925781-2.109375-13.324219-5.527343-3.414062-3.40625-5.535156-8.117188-5.535156-13.320313 0-10.417969 8.453125-18.859375 18.859375-18.859375h52.957031c5.203126 0 9.925782-2.113281 13.339844-5.527344 3.398438-3.410156 5.519532-8.121094 5.519532-13.324218 0-10.417969-8.453126-18.859376-18.859376-18.859376h-74.480468c-5.210938 0-9.925782-2.113281-13.332032-5.527343-3.414062-3.40625-5.527343-8.121094-5.527343-13.324219 0-10.417969 8.445312-18.859375 18.859375-18.859375zm0 0" fill="#92dcf0"/><path d="m289.90625 67.09375c0 9.84375-7.980469 17.816406-17.824219 17.816406h-4.953125c-4.921875 0-9.375 1.992188-12.601562 5.222656-3.230469 3.230469-5.226563 7.679688-5.226563 12.601563 0 9.84375-7.980469 17.824219-17.824219 17.824219h-143.945312c-4.921875 0-9.371094-1.992188-12.601562-5.222656-3.230469-3.230469-5.222657-7.679688-5.222657-12.601563 0-9.84375 7.980469-17.824219 17.824219-17.824219h4.953125c4.921875 0 9.371094-1.996094 12.601563-5.214844 3.21875-3.230468 5.214843-7.679687 5.214843-12.601562 0-6.5-3.480469-12.195312-8.683593-15.308594 21.535156-16.320312 45.722656-29.300781 71.816406-38.171875h20.65625c9.851562 0 17.824218 7.984375 17.824218 17.828125s7.984376 17.824219 17.828126 17.824219h42.339843c4.921875 0 9.371094 1.996094 12.601563 5.226563 3.226562 3.21875 5.222656 7.679687 5.222656 12.601562zm0 0" fill="#92dcf0"/><path d="m228.984375 283.113281-128.273437-34.371093-91.464844-65.027344c-6.863282-4.878906-6.375-15.222656.917968-19.429688l34.148438-19.71875c6.105469-3.523437 13.359375-4.480468 20.167969-2.65625l151.125 40.496094" fill="#ccc"/><path d="m146.347656 239.804688-82.894531-57.558594c-4.167969-2.890625-9.625-3.117188-14.015625-.582032l-23.773438 13.722657 97.15625 69.089843 23.054688-13.308593c4.277344-2.46875 4.53125-8.546875.472656-11.363281zm0 0" fill="#e6e6e6"/><path d="m497.726562 171.507812c-2.140624 1.925782-4.515624 3.648438-7.085937 5.132813l-395.054687 228.089844c-12.570313 7.261719-26.351563 10.691406-39.964844 10.59375-31.035156-38.953125-50.929688-87.175781-54.890625-139.835938l28.589843 14.460938 326.363282-188.425781c21.921875-12.65625 48.585937-14.035157 71.699218-3.710938l19.550782 8.734375 3.136718-1.804687c3.050782-1.765626 6.238282-3.09375 9.484376-4.003907 7.253906-2.046875 14.796874-2.015625 21.828124-.125 10.492188 2.8125 19.875 9.71875 25.539063 20.042969 9.425781 17.1875 4.953125 38.21875-9.195313 50.851562zm0 0" fill="#e6e6e6"/><path d="m497.777344 171.644531c-1.960938 1.703125-4.105469 3.238281-6.433594 4.589844l-213.246094 123.117187-112.859375 65.160157-50.84375 29.351562-18.808593 10.855469c-12.570313 7.261719-26.363282 10.691406-39.964844 10.605469-6.394532-8.023438-12.320313-16.445313-17.710938-25.222657 14.628906.679688 29.601563-2.695312 43.152344-10.519531l18.820312-10.867187 50.832032-29.351563 112.859375-65.160156 213.253906-123.121094c3.53125-2.039062 6.644531-4.523437 9.3125-7.335937 8.921875-9.394532 12.882813-22.484375 10.78125-35.160156 3.730469 3.0625 6.980469 6.832031 9.539063 11.265624 10.054687 17.40625 5.976562 39.109376-8.683594 51.792969zm0 0" fill="#ccc"/><path d="m446.933594 106.546875-40.839844 23.582031c-14.035156 8.101563-31.996094 3.289063-40.097656-10.746094l-10.3125-17.863281c7.808594-4.507812 16.222656-7.585937 24.855468-9.207031 15.605469-2.941406 31.957032-1.15625 46.847657 5.5zm0 0" fill="#92dcf0"/><path d="m446.933594 106.546875-18.210938 10.515625c-14.035156 8.101562-31.996094 3.289062-40.097656-10.746094l-8.085938-14.003906c15.605469-2.941406 31.957032-1.15625 46.847657 5.5zm0 0" fill="#b8f0ff"/><path d="m292.414062 245.929688-53.21875 198.609374c-1.824218 6.804688-6.277343 12.609376-12.378906 16.132813l-34.152344 19.71875c-7.289062 4.207031-16.488281-.539063-17.285156-8.921875l-15.550781-164.042969" fill="#e6e6e6"/><g fill="#92dcf0"><path d="m80.277344 326.070312c-6.925782 4-15.417969-2.835937-13.027344-10.441406 2.40625-7.644531 13.386719-8.375 16.707031-1.011718 1.863281 4.136718.257813 9.179687-3.679687 11.453124zm0 0"/><path d="m283.722656 198.269531c-2.472656-4.28125-1.015625-9.757812 3.277344-12.234375 4.28125-2.472656 9.761719-1.003906 12.234375 3.277344s1.003906 9.761719-3.277344 12.234375c-4.292969 2.480469-9.761719 1.003906-12.234375-3.277344zm-30.820312 17.792969c-2.472656-4.28125-1.003906-9.761719 3.289062-12.242188 4.28125-2.46875 9.761719-1 12.234375 3.28125 2.472657 4.28125 1.003907 9.761719-3.28125 12.234376-4.289062 2.476562-9.769531 1.007812-12.242187-3.273438zm-30.808594 17.789062c-2.472656-4.28125-1.003906-9.761718 3.277344-12.234374 4.292968-2.476563 9.773437-1.011719 12.246094 3.273437 2.472656 4.28125 1.003906 9.761719-3.289063 12.238281-4.285156 2.472656-9.765625 1.003906-12.234375-3.277344zm-30.8125 17.785157c-2.472656-4.28125-1.003906-9.761719 3.28125-12.234375 4.289062-2.476563 9.761719-1 12.234375 3.28125s1.011719 9.757812-3.28125 12.234375c-4.28125 2.472656-9.761719 1.003906-12.234375-3.28125zm-30.808594 17.789062c-2.472656-4.28125-1.003906-9.761719 3.277344-12.234375s9.765625-1.003906 12.234375 3.28125c2.472656 4.28125 1.003906 9.761719-3.277344 12.234375-4.28125 2.46875-9.761719 1-12.234375-3.28125zm-30.808594 17.789063c-2.472656-4.28125-1.003906-9.761719 3.277344-12.234375 4.28125-2.472657 9.761719-1.003907 12.234375 3.277343 2.472657 4.285157 1.003907 9.765626-3.277343 12.238282-4.28125 2.46875-9.765626 1-12.234376-3.28125zm-30.8125 17.789062c-2.472656-4.28125-1.003906-9.765625 3.28125-12.234375 4.28125-2.472656 9.761719-1.003906 12.234376 3.277344 2.472656 4.28125 1.003906 9.761719-3.28125 12.234375-4.28125 2.472656-9.761719 1.003906-12.234376-3.277344zm0 0"/><path d="m326.765625 183.757812c-6.953125 4.019532-15.566406-2.925781-12.976563-10.605468 1.15625-3.425782 4.371094-5.886719 7.984376-6.085938 3.929687-.21875 7.660156 2.238282 8.960937 5.972656 1.394531 4.003907-.277344 8.589844-3.96875 10.71875zm0 0"/></g><path d="m195.351562 324.679688 8.398438 100.570312c.421875 5.050781-2.109375 9.894531-6.5 12.429688l-23.773438 13.722656-11.253906-118.683594 23.054688-13.3125c4.273437-2.464844 9.664062.351562 10.074218 5.273438zm0 0" fill="#ccc"/></svg>