<svg id="Layer_1" enable-background="new 0 0 510.297 510.297" height="512" viewBox="0 0 510.297 510.297" width="512" xmlns="http://www.w3.org/2000/svg"><g><g><path d="m250.083 5.066c-96.238 0-155.516 54.28-155.68 54.372-3.714 17.144-10.174 42.024-10.174 60.28 0 138.117 116.473 250.055 254.59 250.055 58.859 0 112.939-27.405 155.658-61.431.174-1.066 5.689-23.024 5.689-53.193-.001-138.117-111.967-250.083-250.083-250.083z" fill="#2896ff"/><path d="m338.797 362.713c-138.117 0-250.082-111.966-250.082-250.083 0-18.256 1.974-36.048 5.689-53.193-.006.005-.011.009-.017.014-39.314 31.32-68.983 74.232-83.824 123.566l.12 144.668c31.089 102.744 126.51 177.545 239.401 177.545 118.833 0 219.794-83.341 244.394-196.89-42.721 34.028-96.822 54.373-155.681 54.373z" fill="#1e87dc"/></g><g><g><path d="m92.018 412.731-34.578-156.101v-2.596l34.578-156.101 11.858 1.298v312.202zm-22.574-157.399 22.433 101.27v-202.541z" fill="#373c41"/></g><g><g><path d="m118.229 157.798h-41.228c-4.75 0-8.6-3.85-8.6-8.6v-48.115c0-4.75 3.85-8.6 8.6-8.6h41.228c4.75 0 8.6 3.85 8.6 8.6v48.115c-.001 4.75-3.851 8.6-8.6 8.6z" fill="#50555a"/></g><g><path d="m133.067 150.406h-70.905c-4.498 0-8.144-3.646-8.144-8.144v-34.244c0-4.498 3.646-8.144 8.144-8.144h70.904c4.498 0 8.144 3.646 8.144 8.144v34.244c.001 4.498-3.645 8.144-8.143 8.144z" fill="#373c41"/></g><g><path d="m54.018 111.451h87.192v10h-87.192z" fill="#222426"/></g><g><path d="m54.018 130.452h87.192v10h-87.192z" fill="#222426"/></g></g><g><g><path d="m118.229 417.814h-41.228c-4.75 0-8.6-3.85-8.6-8.6v-48.115c0-4.75 3.85-8.6 8.6-8.6h41.228c4.75 0 8.6 3.85 8.6 8.6v48.115c-.001 4.75-3.851 8.6-8.6 8.6z" fill="#50555a"/></g><g><path d="m133.067 410.423h-70.905c-4.498 0-8.144-3.646-8.144-8.144v-34.244c0-4.498 3.646-8.144 8.144-8.144h70.904c4.498 0 8.144 3.646 8.144 8.144v34.244c.001 4.498-3.645 8.144-8.143 8.144z" fill="#373c41"/></g><g><path d="m54.018 371.467h87.192v10h-87.192z" fill="#222426"/></g><g><path d="m54.018 390.468h87.192v10h-87.192z" fill="#222426"/></g></g><g><path d="m306.75 318.678 30.861-63.346-43.282-88.841c-3.387-6.953-10.443-11.364-18.177-11.364h-8.836l-58.981 10.38-58.609-10.38h-7.536v163.551z" fill="#ff3c3c"/></g><path d="m294.329 344.173 16.925-34.74h-112.598c-27.023 0-48.929-21.906-48.929-48.929v-105.377h-34.189c-7.973 0-15.201 4.685-18.457 11.963l-6.649 14.863h-72.859c-2.439 0-4.789.375-7 1.068-6.87 22.839-10.573 47.049-10.573 72.128 0 25.226 3.75 49.574 10.698 72.533 2.174.668 4.482 1.03 6.875 1.03h72.859l6.649 14.863c3.256 7.278 10.484 11.963 18.457 11.963h33.817l58.981-10.801 58.981 10.801h8.836c7.733-.001 14.789-4.413 18.176-11.365z" fill="#dc1428"/><g><path d="m398.038 412.731-34.579-156.101v-2.596l34.579-156.102 11.858 1.298v312.202zm-22.575-157.399 22.434 101.272v-202.545z" fill="#373c41"/></g><g><path d="m486.982 279.724-91.13 5.798-23.944-10.363-19.652 13.137-93.467 5.946v-77.819l93.467 5.575 21.798 11.326 21.798-8.726 91.031 5.429c13.15.784 23.413 11.678 23.413 24.851.001 13.136-10.205 24.012-23.314 24.846z" fill="#ff3c3c"/></g><g><path d="m463.524 383.095h-17.582v-27.558l15.823-98.737-15.823-98.737v-30.493h17.582c12.908 0 23.372 10.464 23.372 23.372v208.783c-.001 12.906-10.464 23.37-23.372 23.37z" fill="#ffc305"/></g><g><path d="m243.268 290.854h-40.482c-19.618 0-35.522-15.904-35.522-35.522 0-19.618 15.904-35.522 35.522-35.522h40.482c19.619 0 35.522 15.904 35.522 35.522 0 19.618-15.904 35.522-35.522 35.522z" fill="#dc1428"/></g><g><path d="m260.142 270.142h-40.482c-19.619 0-35.522-15.904-35.522-35.522 0-3.631.548-7.134 1.56-10.433-10.987 6.041-18.434 17.722-18.434 31.145 0 19.619 15.904 35.522 35.522 35.522h40.482c15.987 0 29.505-10.563 33.963-25.089-5.071 2.788-10.894 4.377-17.089 4.377z" fill="#be1423"/></g><g><path d="m445.941 355.537v-197.475c11.309 0 20.477 9.168 20.477 20.477v156.521c0 11.309-9.167 20.477-20.477 20.477z" fill="#ffa50a"/></g><g><path d="m40.364 303.483h-13.753c-7.179 0-12.999-5.82-12.999-12.999v-70.304c0-7.179 5.82-12.999 12.999-12.999h13.753z" fill="#be1423"/></g><g><path d="m90.431 328.711v-146.758c-10.934 0-19.798 8.864-19.798 19.798v107.163c.001 10.933 8.864 19.797 19.798 19.797z" fill="#ff3c3c"/></g><g><g><path d="m416.466 157.798h-41.228c-4.75 0-8.6-3.85-8.6-8.6v-48.115c0-4.75 3.85-8.6 8.6-8.6h41.228c4.75 0 8.6 3.85 8.6 8.6v48.115c0 4.75-3.85 8.6-8.6 8.6z" fill="#50555a"/></g><g><path d="m431.305 150.406h-70.905c-4.498 0-8.144-3.646-8.144-8.144v-34.244c0-4.498 3.646-8.144 8.144-8.144h70.904c4.498 0 8.144 3.646 8.144 8.144v34.244c.001 4.498-3.645 8.144-8.143 8.144z" fill="#373c41"/></g><g><path d="m352.257 111.451h87.192v10h-87.192z" fill="#222426"/></g><g><path d="m352.257 130.452h87.192v10h-87.192z" fill="#222426"/></g></g><g><g><path d="m416.466 417.814h-41.228c-4.75 0-8.6-3.85-8.6-8.6v-48.115c0-4.75 3.85-8.6 8.6-8.6h41.228c4.75 0 8.6 3.85 8.6 8.6v48.115c0 4.75-3.85 8.6-8.6 8.6z" fill="#50555a"/></g><g><path d="m431.305 410.423h-70.905c-4.498 0-8.144-3.646-8.144-8.144v-34.244c0-4.498 3.646-8.144 8.144-8.144h70.904c4.498 0 8.144 3.646 8.144 8.144v34.244c.001 4.498-3.645 8.144-8.143 8.144z" fill="#373c41"/></g><g><path d="m352.257 371.467h87.192v10h-87.192z" fill="#222426"/></g><g><path d="m352.257 390.468h87.192v10h-87.192z" fill="#222426"/></g></g><g><path d="m352.256 288.295 43.597-2.774v-60.923l-43.597-2.601z" fill="#fff"/></g><g><path d="m249.114 188.205h-81.556c-10.053 0-18.203-8.15-18.203-18.203v-14.875h117.962v14.875c-.001 10.053-8.15 18.203-18.203 18.203z" fill="#fff"/></g><g><path d="m267.316 355.537h-117.961v-14.875c0-10.053 8.15-18.203 18.203-18.203h81.556c10.053 0 18.203 8.15 18.203 18.203v14.875z" fill="#fff"/></g></g></g></svg>