<svg id="Layer_1" enable-background="new 0 0 512 512" height="512" viewBox="0 0 512 512" width="512" xmlns="http://www.w3.org/2000/svg"><g><path d="m256 21.996c-135.311 0-245.002 109.691-245.002 245.002 0 104.123 64.959 193.063 156.557 228.537h176.89c91.598-35.474 156.557-124.414 156.557-228.537 0-135.311-109.691-245.002-245.002-245.002z" fill="#ffc839"/><path d="m261.673 15.894v40.888l45.594-16.551c3.638-1.321 3.638-6.466 0-7.787z" fill="#ff4155"/><g><path d="m281.388 42.211v-11.747c0-2.543.917-4.799 2.387-6.547l-22.102-8.023v40.888l22.102-8.023c-1.47-1.748-2.387-4.005-2.387-6.548z" fill="#e80054"/></g><g><path d="m256 85.624c-4.142 0-7.5-3.357-7.5-7.5v-70.624c0-4.143 3.358-7.5 7.5-7.5s7.5 3.357 7.5 7.5v70.624c0 4.143-3.358 7.5-7.5 7.5z" fill="#d3dcfb"/></g><g><path d="m256 115.499c-5.523 0-10-4.478-10-10v-27.375c0-5.522 4.477-10 10-10s10 4.478 10 10v27.375c0 5.522-4.477 10-10 10z" fill="#e9efff"/></g><path d="m185.064 355.647c3.254 0 5.9-2.647 5.9-5.901v-40.991c0-1.462 1.19-2.651 2.652-2.651h18.436c1.462 0 2.652 1.189 2.652 2.651v40.991c0 3.254 2.647 5.901 5.9 5.901h17.624c3.254 0 5.902-2.647 5.902-5.901v-40.991c0-1.462 1.189-2.651 2.651-2.651h18.436c1.462 0 2.651 1.189 2.651 2.651v40.991c0 3.254 2.648 5.901 5.901 5.901h17.624c3.254 0 5.901-2.647 5.901-5.901v-40.991c0-1.462 1.19-2.651 2.652-2.651h18.436c1.462 0 2.652 1.189 2.652 2.651v40.99c0 3.254 2.647 5.901 5.9 5.901h8.375v-153.122h-158.62v153.123z" fill="#f99271"/><path d="m176.689 355.647h8.375c3.254 0 5.901-2.647 5.901-5.901v-40.991c0-1.462 1.19-2.651 2.652-2.651h18.436c1.462 0 2.652 1.189 2.652 2.651v40.991c0 3.254 2.646 5.901 5.9 5.901h17.624c3.254 0 5.901-2.647 5.901-5.901v-40.991c0-1.462 1.189-2.651 2.651-2.651h5.529v-1.422c-13.439-16.931 0-30.245 0-30.245l-5.156-42.281c-11.594-8.957-2.867-22.132-2.867-22.132l-4.136-7.5h-63.463v153.123z" fill="#ef7d5e"/><path d="m169.86 410.209c-.79 0-1.561-.08-2.305-.233v85.558c27.437 10.626 57.257 16.466 88.445 16.466s61.009-5.84 88.445-16.465v-85.558c-.745.152-1.516.233-2.305.233h-172.28z" fill="#ef7d5e"/><path d="m286.027 510.164c-11.126-13.374 1.662-26.269 1.662-26.269l-5.156-42.281c-35.445-4.336-30.875-28.779-30.278-31.404h-82.395c-.79 0-1.561-.08-2.305-.233v85.558c27.437 10.625 57.257 16.465 88.445 16.465 10.167 0 20.186-.632 30.027-1.836z" fill="#e26447"/><path d="m247.798 102.374-79.109 100.15h174.622l-79.109-100.15z" fill="#ff4155"/><path d="m246.061 167.494 27.709-53.007-9.569-12.113h-16.404l-79.109 100.15h98.588c-17.984 0-29.546-19.091-21.215-35.03z" fill="#e80054"/><g><path d="m337.905 210.024h-163.811c-4.142 0-7.5-3.357-7.5-7.5s3.358-7.5 7.5-7.5h163.811c4.142 0 7.5 3.357 7.5 7.5s-3.358 7.5-7.5 7.5z" fill="#ff7186"/></g><path d="m345.405 202.524c0-4.143-3.358-7.5-7.5-7.5h-20.41c-4.142 0-7.5 3.357-7.5 7.5s3.358 7.5 7.5 7.5h20.41c4.143 0 7.5-3.357 7.5-7.5z" fill="#f9a0b1"/><path d="m236.788 202.524c0-4.143 3.358-7.5 7.5-7.5h-70.194c-4.142 0-7.5 3.357-7.5 7.5s3.358 7.5 7.5 7.5h70.194c-4.142 0-7.5-3.357-7.5-7.5z" fill="#ff4155"/><g><path d="m267.393 109.874h-22.786c-4.142 0-7.5-3.357-7.5-7.5s3.358-7.5 7.5-7.5h22.786c4.142 0 7.5 3.357 7.5 7.5s-3.358 7.5-7.5 7.5z" fill="#f9a0b1"/></g><path d="m254.878 102.374c0-4.143 3.358-7.5 7.5-7.5h-17.77c-4.142 0-7.5 3.357-7.5 7.5s3.358 7.5 7.5 7.5h17.77c-4.142 0-7.5-3.357-7.5-7.5z" fill="#ff7186"/><g fill="#cc4432"><path d="m234.622 483.895h-28c-2.037 0-3.689-1.652-3.689-3.689v-23.289c0-9.769 7.92-17.689 17.689-17.689 9.769 0 17.689 7.92 17.689 17.689v23.289c0 2.037-1.652 3.689-3.689 3.689z"/><path d="m305.378 483.895h-28c-2.037 0-3.689-1.652-3.689-3.689v-23.289c0-9.769 7.92-17.689 17.689-17.689 9.769 0 17.689 7.92 17.689 17.689v23.289c0 2.037-1.652 3.689-3.689 3.689z"/><path d="m270 274.438h-28c-2.037 0-3.689-1.652-3.689-3.689v-23.289c0-9.769 7.92-17.689 17.689-17.689 9.769 0 17.689 7.92 17.689 17.689v23.289c0 2.037-1.652 3.689-3.689 3.689z"/></g><path d="m220.622 439.228c-3.226 0-6.24.877-8.844 2.386 5.282 3.06 8.844 8.76 8.844 15.303v23.289c0 2.037-1.652 3.689-3.689 3.689h17.689c2.037 0 3.689-1.652 3.689-3.689v-23.289c0-9.769-7.919-17.689-17.689-17.689z" fill="#b53921"/><path d="m291.378 439.228c-3.226 0-6.241.877-8.845 2.386 5.282 3.06 8.845 8.76 8.845 15.303v23.289c0 2.037-1.652 3.689-3.689 3.689h17.689c2.037 0 3.689-1.652 3.689-3.689v-23.289c0-9.769-7.92-17.689-17.689-17.689z" fill="#b53921"/><path d="m256 229.771c-3.226 0-6.241.877-8.844 2.386 5.282 3.06 8.844 8.76 8.844 15.303v23.289c0 2.037-1.652 3.689-3.689 3.689h17.689c2.037 0 3.689-1.652 3.689-3.689v-23.289c0-9.769-7.92-17.689-17.689-17.689z" fill="#b53921"/><g><path d="m389.918 61.821c-15.413 12.873-28.842 28.016-31.308 47.406-2.864 22.524 10.214 43.851 24.37 61.603s30.464 35.116 35.992 57.138c7.126 28.384-5.192 57.608-8.321 86.705-3.041 28.287 3.92 59.23 25.05 78.282 6.406 5.776 13.837 10.187 21.815 13.406 27.416-39.562 43.486-87.584 43.486-139.363 0-85.884-44.2-161.433-111.084-205.177z" fill="#ffdd40"/></g><g><path d="m122.082 61.821c15.413 12.873 28.842 28.016 31.308 47.406 2.864 22.524-10.214 43.851-24.37 61.603-14.157 17.752-30.464 35.116-35.992 57.138-7.126 28.384 5.192 57.608 8.32 86.705 3.042 28.287-3.92 59.23-25.05 78.282-6.406 5.776-13.837 10.187-21.815 13.406-27.416-39.562-43.486-87.584-43.486-139.363.001-85.884 44.201-161.433 111.085-205.177z" fill="#ffdd40"/></g><g><path d="m158.441 382.921v17.765c0 6.307 5.112 11.419 11.419 11.419h172.28c6.307 0 11.419-5.112 11.419-11.419v-17.765z" fill="#f99271"/></g><path d="m252.311 382.921h-93.87v17.765c0 6.307 5.112 11.419 11.419 11.419h82.075c.005-.045.011-.09.017-.134.166-1.29-.244-2.565-1.08-3.561-10.076-12.001 1.439-23.593 1.439-23.593z" fill="#ef7d5e"/><path d="m371.55 304.682h-18.436c-2.25 0-4.073 1.824-4.073 4.073v40.991c0 2.474-2.006 4.48-4.48 4.48h-17.624c-2.474 0-4.479-2.006-4.479-4.48v-40.991c0-2.25-1.824-4.073-4.074-4.073h-18.436c-2.25 0-4.073 1.824-4.073 4.074v40.99c0 2.474-2.006 4.48-4.48 4.48h-17.624c-2.474 0-4.479-2.006-4.479-4.48v-40.991c0-2.25-1.824-4.073-4.073-4.073h-18.436c-2.25 0-4.074 1.824-4.074 4.074v40.99c0 2.474-2.006 4.48-4.48 4.48h-17.624c-2.474 0-4.479-2.006-4.479-4.48v-40.991c0-2.25-1.824-4.073-4.074-4.073h-18.436c-2.25 0-4.073 1.824-4.073 4.073v40.991c0 2.474-2.006 4.48-4.48 4.48h-17.624c-2.474 0-4.48-2.006-4.48-4.48v-40.991c0-2.25-1.824-4.073-4.073-4.073h-18.436c-2.25 0-4.073 1.824-4.073 4.073v57.32c0 10.35 8.39 18.741 18.74 18.741h201.765c10.35 0 18.741-8.39 18.741-18.741v-57.32c0-2.249-1.824-4.073-4.073-4.073z" fill="#f6b784"/><path d="m241.965 352.215-.001-.002c-.802 1.212-2.173 2.013-3.735 2.013h-17.624c-2.474 0-4.479-2.006-4.479-4.48v-40.991c0-2.25-1.824-4.073-4.074-4.073h-18.436c-2.249 0-4.073 1.824-4.073 4.073v40.991c0 2.474-2.006 4.48-4.48 4.48h-17.624c-2.474 0-4.48-2.006-4.48-4.48v-40.991c0-2.25-1.824-4.073-4.074-4.073h-18.435c-2.249 0-4.073 1.824-4.073 4.073v57.32c0 10.35 8.39 18.741 18.74 18.741h97.194c-19.106-9.464-10.346-32.601-10.346-32.601z" fill="#f99271"/><path d="m375.623 366.076v-57.32c0-2.25-1.824-4.073-4.073-4.073h-18.436c-2.249 0-4.073 1.824-4.073 4.073v40.991c0 2.474-2.006 4.48-4.48 4.48 0 0-11.477 19.126 5.689 30.59h6.633c10.35-.001 18.74-8.391 18.74-18.741z" fill="#f9ccaa"/></g></svg>